<svg width="16" height="16" viewBox="0 0 16 16" fill="none" xmlns="http://www.w3.org/2000/svg">
<g clip-path="url(#clip0)">
<path d="M13.6318 13.6324H11.2611V9.91966C11.2611 9.03435 11.2453 7.89466 10.0281 7.89466C8.79331 7.89466 8.60438 8.85929 8.60438 9.85523V13.6321H6.23375V5.99735H8.50956V7.04073H8.54144C8.76919 6.65129 9.09831 6.33092 9.49374 6.11374C9.88917 5.89655 10.3361 5.79069 10.7869 5.80741C13.1898 5.80741 13.6328 7.38791 13.6328 9.44404L13.6318 13.6324ZM3.55875 4.95379C2.79894 4.95391 2.18288 4.33804 2.18275 3.57823C2.18263 2.81841 2.79844 2.20235 3.55825 2.20223C4.31806 2.20204 4.93413 2.81791 4.93425 3.57773C4.93432 3.9426 4.78944 4.29256 4.53148 4.55062C4.27353 4.80868 3.92363 4.95371 3.55875 4.95379ZM4.74413 13.6324H2.37094V5.99735H4.74406V13.6324L4.74413 13.6324ZM14.8136 0.000538883H1.17969C0.535313 -0.00671112 0.00687555 0.509476 -0.000999451 1.15385V14.8447C0.00662555 15.4894 0.535001 16.006 1.17963 15.9993H14.8136C15.4596 16.0073 15.9901 15.4906 15.999 14.8447V1.15279C15.9898 0.507164 15.4593 -0.00896112 14.8136 -0.000523617" fill="#0A66C2"/>
</g>
<defs>
<clipPath id="clip0">
<rect width="16" height="16" fill="white"/>
</clipPath>
</defs>
</svg>
