<svg width="32" height="32" viewBox="0 0 32 32" fill="none" xmlns="http://www.w3.org/2000/svg">
<g clip-path="url(#clip0)">
<path d="M27.2645 27.2653H22.5231V19.84C22.5231 18.0693 22.4915 15.79 20.0571 15.79C17.5876 15.79 17.2097 17.7192 17.2097 19.7111V27.2648H12.4685V11.9953H17.0201V14.0821H17.0839C17.5394 13.3032 18.1976 12.6625 18.9885 12.2281C19.7793 11.7937 20.6732 11.582 21.5749 11.6155C26.3805 11.6155 27.2665 14.7765 27.2665 18.8887L27.2645 27.2653V27.2653ZM7.11849 9.9082C5.59887 9.90845 4.36674 8.6767 4.36649 7.15708C4.36624 5.63745 5.59787 4.40533 7.11749 4.40508C8.63712 4.4047 9.86924 5.63645 9.86949 7.15608C9.86963 7.88583 9.57987 8.58575 9.06396 9.10187C8.54805 9.61799 7.84825 9.90804 7.11849 9.9082V9.9082ZM9.48924 27.2655H4.74287V11.9953H9.48912V27.2653L9.48924 27.2655ZM29.6282 0.00170338H2.36037C1.07162 -0.0127966 0.0147429 1.01958 -0.00100708 2.30833V29.69C0.0142429 30.9793 1.07099 32.0127 2.36024 31.9992H29.6282C30.9202 32.0152 31.9811 30.9818 31.999 29.69V2.3062C31.9806 1.01495 30.9196 -0.0172966 29.6282 -0.000421624" fill="#0A66C2"/>
</g>
<defs>
<clipPath id="clip0">
<rect width="32" height="32" fill="white"/>
</clipPath>
</defs>
</svg>
