<svg width="21" height="16" viewBox="0 0 21 16" fill="none" xmlns="http://www.w3.org/2000/svg">
<g clip-path="url(#clip0)">
<path d="M20.299 1.94832C19.5779 2.26809 18.803 2.48421 17.9897 2.58143C18.8199 2.08383 19.4574 1.29585 19.7576 0.356975C18.9683 0.825327 18.1048 1.15531 17.2044 1.33267C16.4709 0.551272 15.426 0.0629272 14.2695 0.0629272C12.0489 0.0629272 10.2486 1.8632 10.2486 4.0836C10.2486 4.39877 10.2842 4.70561 10.3527 4.99996C7.01108 4.83223 4.0484 3.23154 2.06524 0.798927C1.71922 1.39276 1.52094 2.08352 1.52094 2.82029C1.52094 4.21527 2.23083 5.44589 3.30965 6.16697C2.67114 6.14697 2.04668 5.97451 1.4884 5.664C1.48817 5.68084 1.48817 5.69768 1.48817 5.7146C1.48817 7.6627 2.87412 9.28781 4.71344 9.65719C4.12135 9.81821 3.50029 9.84178 2.8977 9.72608C3.40932 11.3235 4.89426 12.4859 6.65365 12.5184C5.27757 13.5968 3.54383 14.2396 1.66012 14.2396C1.33552 14.2396 1.01552 14.2206 0.700957 14.1834C2.48033 15.3242 4.59378 15.9899 6.8644 15.9899C14.2602 15.9899 18.3043 9.86312 18.3043 4.54989C18.3043 4.3755 18.3005 4.2021 18.2927 4.0297C19.0799 3.46066 19.7593 2.75584 20.299 1.94832Z" fill="#55ACEE"/>
</g>
<defs>
<clipPath id="clip0">
<rect width="19.6" height="16" fill="white" transform="translate(0.700001)"/>
</clipPath>
</defs>
</svg>
