<svg width="32" height="28" viewBox="0 0 32 28" fill="none" xmlns="http://www.w3.org/2000/svg">
<g clip-path="url(#clip0)">
<path d="M31.9984 4.11972C30.821 4.64179 29.5559 4.99463 28.228 5.15337C29.5835 4.34095 30.6243 3.05445 31.1144 1.5216C29.8258 2.28625 28.416 2.825 26.9459 3.11457C25.7484 1.83882 24.0425 1.04152 22.1543 1.04152C18.5289 1.04152 15.5895 3.98073 15.5895 7.60588C15.5895 8.12045 15.6477 8.6214 15.7595 9.10198C10.3038 8.82813 5.46677 6.21476 2.22896 2.24315C1.66402 3.21268 1.3403 4.34045 1.3403 5.54333C1.3403 7.82086 2.49931 9.83004 4.26064 11.0073C3.21818 10.9746 2.19865 10.6931 1.28718 10.1861C1.28681 10.2136 1.28681 10.2411 1.28681 10.2687C1.28681 13.4493 3.54958 16.1025 6.55254 16.7056C5.58587 16.9685 4.5719 17.007 3.58808 16.8181C4.42337 19.4261 6.84776 21.3239 9.72023 21.377C7.47358 23.1376 4.64298 24.1871 1.56753 24.1871C1.03758 24.1871 0.515131 24.156 0.0015564 24.0954C2.90665 25.958 6.35718 27.0447 10.0643 27.0447C22.139 27.0447 28.7417 17.0418 28.7417 8.36718C28.7417 8.08246 28.7355 7.79936 28.7227 7.51789C30.0079 6.58883 31.1172 5.43811 31.9984 4.11972" fill="#55ACEE"/>
</g>
<defs>
<clipPath id="clip0">
<rect width="32" height="26.1224" fill="white" transform="translate(0 0.938782)"/>
</clipPath>
</defs>
</svg>
