<svg width="49" height="48" viewBox="0 0 49 48" fill="none" xmlns="http://www.w3.org/2000/svg">
<path d="M8.99585 40.8015L5.62685 3H42.6588L39.2853 40.7955L24.1203 45L8.99585 40.8015Z" fill="#1572B6"/>
<path d="M24.1429 41.787L36.3979 38.3895L39.2809 6.09151H24.1429V41.787Z" fill="#33A9DC"/>
<path d="M24.1429 19.7865H30.2779L30.7009 15.039H24.1429V10.4025H35.7679L35.6569 11.646L34.5184 24.423H24.1429V19.7865V19.7865Z" fill="white"/>
<path d="M24.1714 31.827L24.1504 31.833L18.9874 30.438L18.6574 26.7405H14.0029L14.6524 34.02L24.1489 36.657L24.1714 36.651V31.827V31.827Z" fill="#EBEBEB"/>
<path d="M29.8833 24.2265L29.3253 30.435L24.1548 31.83V36.654L33.6588 34.02L33.7293 33.237L34.5348 24.2265H29.8833V24.2265Z" fill="white"/>
<path d="M24.1593 10.4025V15.039H12.9603L12.8673 13.9965L12.6558 11.646L12.5448 10.4025H24.1593V10.4025Z" fill="#EBEBEB"/>
<path d="M24.1429 19.7865V24.423H19.0444L18.9514 23.3805L18.7414 21.03L18.6304 19.7865H24.1429V19.7865Z" fill="#EBEBEB"/>
</svg>
