<svg width="49" height="48" viewBox="0 0 49 48" fill="none" xmlns="http://www.w3.org/2000/svg">
<path d="M31.7143 31C35.5803 31 38.7143 27.866 38.7143 24C38.7143 20.134 35.5803 17 31.7143 17C27.8483 17 24.7143 20.134 24.7143 24C24.7143 27.866 27.8483 31 31.7143 31Z" fill="#19BCFE"/>
<path fill-rule="evenodd" clip-rule="evenodd" d="M17.7143 45C19.5708 45 21.3513 44.2625 22.664 42.9497C23.9768 41.637 24.7143 39.8565 24.7143 38V31H17.7143C15.8577 31 14.0773 31.7375 12.7645 33.0503C11.4518 34.363 10.7143 36.1435 10.7143 38C10.7143 39.8565 11.4518 41.637 12.7645 42.9497C14.0773 44.2625 15.8577 45 17.7143 45V45Z" fill="#09CF83"/>
<path fill-rule="evenodd" clip-rule="evenodd" d="M17.7143 31H24.7143V17H17.7143C15.8577 17 14.0773 17.7375 12.7645 19.0503C11.4518 20.363 10.7143 22.1435 10.7143 24C10.7143 25.8565 11.4518 27.637 12.7645 28.9497C14.0773 30.2625 15.8577 31 17.7143 31V31Z" fill="#A259FF"/>
<path fill-rule="evenodd" clip-rule="evenodd" d="M17.7143 17H24.7143V3H17.7143C15.8577 3 14.0773 3.7375 12.7645 5.05025C11.4518 6.36301 10.7143 8.14348 10.7143 10C10.7143 11.8565 11.4518 13.637 12.7645 14.9497C14.0773 16.2625 15.8577 17 17.7143 17V17Z" fill="#F24E1E"/>
<path fill-rule="evenodd" clip-rule="evenodd" d="M31.7143 17H24.7143V3H31.7143C33.5708 3 35.3513 3.7375 36.664 5.05025C37.9768 6.36301 38.7143 8.14348 38.7143 10C38.7143 11.8565 37.9768 13.637 36.664 14.9497C35.3513 16.2625 33.5708 17 31.7143 17Z" fill="#FF7262"/>
</svg>
