<svg width="48" height="48" viewBox="0 0 48 48" fill="none" xmlns="http://www.w3.org/2000/svg">
<path d="M6.51358 38.7437L6.80502 38.3374L20.5542 12.2551L20.5834 11.979L14.5231 0.59566C14.4121 0.387496 14.2385 0.219488 14.0269 0.115405C13.8152 0.0113209 13.5761 -0.0235688 13.3435 0.0156714C13.1109 0.0549115 12.8966 0.166295 12.7308 0.334063C12.5649 0.501832 12.4561 0.717492 12.4196 0.950533L6.51358 38.7437Z" fill="#FFC24A"/>
<path d="M6.68503 38.4351L6.90447 38.0065L20.5114 12.195L14.4665 0.767096C14.3668 0.568355 14.2054 0.407263 14.0065 0.307955C13.8076 0.208647 13.5818 0.176469 13.3631 0.216243C13.1443 0.256016 12.9443 0.365599 12.7931 0.528575C12.6419 0.691551 12.5475 0.899145 12.5242 1.12026L6.68503 38.4351Z" fill="#FFA712"/>
<path d="M25.0013 20.5886L29.5135 15.9598L24.9996 7.35197C24.9002 7.16671 24.7525 7.01187 24.5721 6.90392C24.3917 6.79598 24.1855 6.73897 23.9752 6.73897C23.765 6.73897 23.5588 6.79598 23.3784 6.90392C23.198 7.01187 23.0503 7.16671 22.9509 7.35197L20.5388 11.9499V12.3425L25.0013 20.5886Z" fill="#F4BD62"/>
<path d="M24.9207 20.4L29.3078 15.9084L24.9207 7.54226C24.8489 7.36117 24.7263 7.20472 24.5675 7.09176C24.4088 6.97881 24.2208 6.91418 24.0262 6.90566C23.8316 6.89714 23.6386 6.9451 23.4707 7.04376C23.3027 7.14242 23.1668 7.28756 23.0795 7.46169L20.6554 12.1402L20.5834 12.3785L24.9207 20.4Z" fill="#FFA50E"/>
<path d="M6.51701 38.7454L6.64902 38.6117L7.12733 38.418L24.7167 20.8937L24.9396 20.2868L20.5525 11.9242L6.51701 38.7454V38.7454Z" fill="#F6820C"/>
<path d="M25.5636 47.583L41.4866 38.7043L36.9367 10.707C36.9041 10.5096 36.8177 10.3251 36.6871 10.1736C36.5564 10.0221 36.3866 9.90949 36.1962 9.8482C36.0057 9.78691 35.8021 9.77927 35.6076 9.82613C35.4132 9.87299 35.2354 9.97252 35.0937 10.1138L6.51358 38.7437L22.3423 47.5812C22.8344 47.8558 23.3886 48 23.9521 48C24.5156 48 25.0698 47.8558 25.5619 47.5812" fill="#FDE068"/>
<path d="M41.3409 38.6305L36.8287 10.8441C36.8207 10.6554 36.7569 10.4732 36.6454 10.3207C36.5339 10.1682 36.3796 10.0522 36.2021 9.98739C36.0246 9.9226 35.8319 9.91192 35.6483 9.9567C35.4648 10.0015 35.2986 10.0997 35.1709 10.239L6.68503 38.6905L22.3389 47.4338C22.8271 47.7062 23.3768 47.8491 23.9358 47.8491C24.4948 47.8491 25.0446 47.7062 25.5327 47.4338L41.3409 38.6305Z" fill="#FCCA3F"/>
<path d="M25.5636 47.3155C25.0715 47.5901 24.5173 47.7343 23.9538 47.7343C23.3903 47.7343 22.8361 47.5901 22.344 47.3155L6.64387 38.61L6.51358 38.7437L22.3423 47.5812C22.8344 47.8558 23.3886 48 23.9521 48C24.5156 48 25.0698 47.8558 25.5619 47.5812L41.4866 38.7043L41.4472 38.4643L25.5636 47.3155Z" fill="#EEAB37"/>
</svg>
