<svg width="49" height="48" viewBox="0 0 49 48" fill="none" xmlns="http://www.w3.org/2000/svg">
<g clip-path="url(#clip0)">
<path d="M47.9519 21.8616L26.9946 0.905447C25.7884 -0.30149 23.8309 -0.30149 22.6232 0.905447L18.2714 5.25732L23.7919 10.7779C25.0748 10.3444 26.5459 10.6352 27.5686 11.6578C28.5961 12.687 28.8848 14.1707 28.4408 15.4577L33.7611 20.7782C35.0483 20.3348 36.5335 20.6216 37.5616 21.6514C38.9984 23.0876 38.9984 25.4154 37.5616 26.8526C36.1244 28.29 33.7966 28.29 32.3586 26.8526C31.2779 25.7708 31.0109 24.1836 31.558 22.8521L26.5964 17.8905L26.5958 30.9474C26.9555 31.1253 27.284 31.3602 27.5686 31.6431C29.0054 33.0793 29.0054 35.4073 27.5686 36.8456C26.1314 38.2823 23.8024 38.2823 22.3673 36.8456C20.9305 35.4073 20.9305 33.0795 22.3673 31.6433C22.7116 31.2988 23.1208 31.0259 23.5712 30.8406V17.6619C23.1202 17.4778 22.7107 17.2048 22.3673 16.8593C21.2787 15.7721 21.0169 14.1748 21.5747 12.8381L16.1327 7.39557L1.76274 21.7646C0.555242 22.9727 0.555242 24.9304 1.76274 26.1375L22.7204 47.094C23.9269 48.3011 25.8841 48.3011 27.0921 47.094L47.9517 26.2348C49.1588 25.0273 49.1588 23.0685 47.9517 21.8616" fill="#DE4C36"/>
</g>
<defs>
<clipPath id="clip0">
<rect width="48" height="48" fill="white" transform="translate(0.857117)"/>
</clipPath>
</defs>
</svg>
