<svg width="49" height="49" viewBox="0 0 49 49" fill="none" xmlns="http://www.w3.org/2000/svg">
<g clip-path="url(#clip0)">
<path d="M18.5525 37.4487C18.5525 37.4487 16.7215 38.5135 19.8556 38.8737C23.6524 39.3069 25.5928 39.2448 29.777 38.4528C29.777 38.4528 30.8771 39.1426 32.4132 39.7401C23.0337 43.76 11.1852 39.5072 18.5525 37.4487" fill="#5382A1"/>
<path d="M17.4063 32.2029C17.4063 32.2029 15.3527 33.723 18.4891 34.0474C22.5449 34.4658 25.7479 34.5001 31.2904 33.4328C31.2904 33.4328 32.057 34.21 33.2624 34.635C21.9218 37.9512 9.29041 34.8965 17.4063 32.2029" fill="#5382A1"/>
<path d="M27.0687 23.3043C29.3799 25.9651 26.4615 28.3595 26.4615 28.3595C26.4615 28.3595 32.3299 25.3301 29.6348 21.5365C27.1177 17.9989 25.1873 16.2409 35.6373 10.1804C35.6373 10.1804 19.2343 14.2771 27.0687 23.3041" fill="#E76F00"/>
<path d="M39.4741 41.3288C39.4741 41.3288 40.829 42.4452 37.9818 43.3089C32.5678 44.9491 15.4479 45.4443 10.692 43.3742C8.98243 42.6307 12.1884 41.5985 13.1969 41.3818C14.2486 41.1538 14.8497 41.1963 14.8497 41.1963C12.9484 39.8569 2.5607 43.8262 9.57328 44.9628C28.6974 48.0642 44.4346 43.5664 39.4741 41.3288Z" fill="#5382A1"/>
<path d="M19.4328 26.7676C19.4328 26.7676 10.7247 28.8361 16.3492 29.587C18.7239 29.905 23.458 29.8331 27.8678 29.4635C31.4717 29.1597 35.0904 28.5132 35.0904 28.5132C35.0904 28.5132 33.8197 29.0575 32.9003 29.6852C24.0572 32.011 6.97393 30.9291 11.892 28.55C16.0512 26.5396 19.433 26.7676 19.433 26.7676" fill="#5382A1"/>
<path d="M35.0545 35.4995C44.0441 30.8282 39.8876 26.3392 36.9865 26.9441C36.2754 27.092 35.9584 27.2202 35.9584 27.2202C35.9584 27.2202 36.2224 26.8067 36.7266 26.6278C42.4658 24.61 46.8797 32.5788 34.8739 35.7349C34.8739 35.735 35.013 35.6107 35.0545 35.4995" fill="#5382A1"/>
<path d="M29.6348 0.394121C29.6348 0.394121 34.6133 5.37447 24.9129 13.0324C17.1343 19.1756 23.1391 22.6782 24.9097 26.6801C20.3691 22.5834 17.0369 18.9771 19.2725 15.6207C22.5535 10.6934 31.6434 8.30469 29.6348 0.393982" fill="#E76F00"/>
<path d="M20.3163 48.1574C28.945 48.7099 42.1954 47.851 42.5092 43.7681C42.5092 43.7681 41.906 45.316 35.378 46.5451C28.0132 47.931 18.9298 47.7693 13.5423 46.881C13.5424 46.881 14.6452 47.7938 20.3164 48.1574" fill="#5382A1"/>
</g>
<defs>
<clipPath id="clip0">
<rect width="35.52" height="48" fill="white" transform="translate(7.09712 0.342651)"/>
</clipPath>
</defs>
</svg>
