<svg width="49" height="48" viewBox="0 0 49 48" fill="none" xmlns="http://www.w3.org/2000/svg">
<g clip-path="url(#clip0)">
<path d="M3.28571 3H45.2857V45H3.28571V3Z" fill="#F7DF1E"/>
<path d="M14.3291 38.0982L17.5431 36.1531C18.1632 37.2525 18.7273 38.1827 20.0803 38.1827C21.3772 38.1827 22.1951 37.6754 22.1951 35.7021V22.2821H26.1419V35.7579C26.1419 39.8458 23.7456 41.7066 20.2494 41.7066C17.0921 41.7066 15.2593 40.0714 14.3289 38.0979" fill="black"/>
<path d="M28.2857 37.6753L31.4994 35.8146C32.3454 37.1962 33.445 38.2111 35.3901 38.2111C37.0257 38.2111 38.0684 37.3934 38.0684 36.2656C38.0684 34.9125 36.9971 34.4331 35.1927 33.6439L34.2062 33.2206C31.3586 32.0087 29.4698 30.4862 29.4698 27.2722C29.4698 24.3119 31.7251 22.0564 35.2493 22.0564C37.7585 22.0564 39.5629 22.9305 40.8596 25.2141L37.7864 27.1877C37.1097 25.9755 36.377 25.4962 35.2492 25.4962C34.0932 25.4962 33.3602 26.2293 33.3602 27.1877C33.3602 28.3718 34.0932 28.8513 35.7847 29.5844L36.7714 30.0071C40.1264 31.4452 42.0153 32.9111 42.0153 36.2094C42.0153 39.762 39.2243 41.7071 35.4746 41.7071C31.8096 41.7071 29.4414 39.9592 28.2856 37.6754" fill="black"/>
</g>
<defs>
<clipPath id="clip0">
<rect width="42" height="42" fill="white" transform="translate(3.28571 3)"/>
</clipPath>
</defs>
</svg>
