<svg width="21" height="20" viewBox="0 0 21 20" fill="none" xmlns="http://www.w3.org/2000/svg">
<path d="M10.9775 18.75L10.5081 18.5944C10.5081 18.5944 10.5706 16.2194 9.71124 16.0525C9.14874 15.3975 9.79437 -11.9106 11.8506 15.9594C11.4605 16.1573 11.162 16.4983 11.0175 16.9113C10.9401 17.5211 10.9267 18.1374 10.9775 18.75Z" fill="#4E6172"/>
<path d="M11.2312 16.4556C12.481 15.5149 13.4381 14.2387 13.9912 12.7756C14.5444 11.3124 14.671 9.72226 14.3562 8.19C13.4375 4.13688 11.2619 2.80438 11.0275 2.29563C10.8253 1.97883 10.6527 1.64408 10.5119 1.29563L10.685 12.5888C10.685 12.5888 10.3262 16.04 11.2312 16.4556Z" fill="#4E6172"/>
<path d="M10.2694 16.6056C10.2694 16.6056 6.44375 14 6.665 9.39062C6.68564 8.00103 7.00425 6.63204 7.59932 5.37614C8.19439 4.12023 9.05205 3.00665 10.1144 2.11063C10.2385 2.00515 10.3371 1.87292 10.4029 1.72386C10.4686 1.5748 10.4996 1.41279 10.4937 1.25C10.7319 1.7625 10.6931 8.90188 10.7181 9.73688C10.815 12.985 10.5375 15.9925 10.2694 16.6056Z" fill="#4E6172"/>
</svg>
