<svg width="49" height="48" viewBox="0 0 49 48" fill="none" xmlns="http://www.w3.org/2000/svg">
<path d="M25.43 45L24.3035 44.6265C24.3035 44.6265 24.4535 38.9265 22.391 38.526C21.041 36.954 22.5905 -28.5855 27.5255 38.3025C26.5892 38.7775 25.8727 39.596 25.526 40.587C25.3402 42.0506 25.308 43.5297 25.43 45Z" fill="url(#paint0_linear)"/>
<path d="M26.039 39.4935C29.0384 37.2356 31.3354 34.1729 32.663 30.6613C33.9906 27.1497 34.2944 23.3334 33.539 19.656C31.334 9.9285 26.1125 6.7305 25.55 5.5095C25.0647 4.74919 24.6504 3.9458 24.3125 3.1095L24.728 30.213C24.728 30.213 23.867 38.496 26.039 39.4935Z" fill="url(#paint1_linear)"/>
<path d="M23.7305 39.8535C23.7305 39.8535 14.549 33.6 15.08 22.5375C15.1295 19.2025 15.8942 15.9169 17.3224 12.9027C18.7505 9.88855 20.8089 7.21597 23.3585 5.0655C23.6564 4.81237 23.8932 4.49501 24.0509 4.13727C24.2086 3.77953 24.2831 3.3907 24.269 3C24.8405 4.23 24.7475 21.3645 24.8075 23.3685C25.04 31.164 24.374 38.382 23.7305 39.8535Z" fill="url(#paint2_linear)"/>
<defs>
<linearGradient id="paint0_linear" x1="17.8575" y1="24.3785" x2="30.805" y2="28.7722" gradientUnits="userSpaceOnUse">
<stop offset="0.231" stop-color="#999875"/>
<stop offset="0.563" stop-color="#9B9977"/>
<stop offset="0.683" stop-color="#A09F7E"/>
<stop offset="0.768" stop-color="#A9A889"/>
<stop offset="0.837" stop-color="#B7B69A"/>
<stop offset="0.896" stop-color="#C9C7B0"/>
<stop offset="0.948" stop-color="#DEDDCB"/>
<stop offset="0.994" stop-color="#F8F6EB"/>
<stop offset="1" stop-color="#FBF9EF"/>
</linearGradient>
<linearGradient id="paint1_linear" x1="22.6054" y1="2.91583" x2="28.3295" y2="38.6592" gradientUnits="userSpaceOnUse">
<stop stop-color="#48A547"/>
<stop offset="1" stop-color="#3F9143"/>
</linearGradient>
<linearGradient id="paint2_linear" x1="14.2902" y1="23.6325" x2="29.6511" y2="18.4882" gradientUnits="userSpaceOnUse">
<stop stop-color="#41A247"/>
<stop offset="0.352" stop-color="#4BA74B"/>
<stop offset="0.956" stop-color="#67B554"/>
<stop offset="1" stop-color="#69B655"/>
</linearGradient>
</defs>
</svg>
