<svg width="49" height="49" viewBox="0 0 49 49" fill="none" xmlns="http://www.w3.org/2000/svg">
<path d="M25.6443 45.3427L24.5178 44.9692C24.5178 44.9692 24.6678 39.2692 22.6053 38.8687C21.2553 37.2967 22.8048 -28.2428 27.7398 38.6452C26.8034 39.1201 26.087 39.9387 25.7403 40.9297C25.5544 42.3933 25.5223 43.8723 25.6443 45.3427V45.3427Z" fill="url(#paint0_linear)"/>
<path d="M26.2533 39.8361C29.2526 37.5783 31.5496 34.5156 32.8773 31.004C34.2049 27.4924 34.5087 23.6761 33.7533 19.9986C31.5483 10.2711 26.3268 7.07315 25.7643 5.85215C25.2789 5.09184 24.8647 4.28845 24.5268 3.45215L24.9423 30.5556C24.9423 30.5556 24.0813 38.8386 26.2533 39.8361Z" fill="url(#paint1_linear)"/>
<path d="M23.9448 40.1962C23.9448 40.1962 14.7633 33.9427 15.2943 22.8802C15.3438 19.5451 16.1085 16.2596 17.5366 13.2454C18.9648 10.2312 21.0232 7.55862 23.5728 5.40815C23.8707 5.15502 24.1074 4.83766 24.2651 4.47992C24.4228 4.12218 24.4974 3.73335 24.4833 3.34265C25.0548 4.57265 24.9618 21.7072 25.0218 23.7112C25.2543 31.5067 24.5883 38.7247 23.9448 40.1962V40.1962Z" fill="url(#paint2_linear)"/>
<defs>
<linearGradient id="paint0_linear" x1="18.0717" y1="24.7211" x2="31.0192" y2="29.1148" gradientUnits="userSpaceOnUse">
<stop offset="0.231" stop-color="#999875"/>
<stop offset="0.563" stop-color="#9B9977"/>
<stop offset="0.683" stop-color="#A09F7E"/>
<stop offset="0.768" stop-color="#A9A889"/>
<stop offset="0.837" stop-color="#B7B69A"/>
<stop offset="0.896" stop-color="#C9C7B0"/>
<stop offset="0.948" stop-color="#DEDDCB"/>
<stop offset="0.994" stop-color="#F8F6EB"/>
<stop offset="1" stop-color="#FBF9EF"/>
</linearGradient>
<linearGradient id="paint1_linear" x1="22.8197" y1="3.25848" x2="28.5437" y2="39.0019" gradientUnits="userSpaceOnUse">
<stop stop-color="#48A547"/>
<stop offset="1" stop-color="#3F9143"/>
</linearGradient>
<linearGradient id="paint2_linear" x1="14.5045" y1="23.9752" x2="29.8654" y2="18.8308" gradientUnits="userSpaceOnUse">
<stop stop-color="#41A247"/>
<stop offset="0.352" stop-color="#4BA74B"/>
<stop offset="0.956" stop-color="#67B554"/>
<stop offset="1" stop-color="#69B655"/>
</linearGradient>
</defs>
</svg>
