<svg width="49" height="49" viewBox="0 0 49 49" fill="none" xmlns="http://www.w3.org/2000/svg">
<g clip-path="url(#clip0)">
<path d="M43.9117 36.5975C41.4112 36.5351 39.4733 36.7852 37.8479 37.4727C37.379 37.6601 36.6287 37.6603 36.5662 38.2543C36.8163 38.5043 36.8476 38.9107 37.0664 39.2544C37.4419 39.8794 38.0978 40.7235 38.6917 41.1613C39.348 41.6613 40.0047 42.1613 40.6921 42.5989C41.9112 43.3492 43.2867 43.7866 44.4744 44.5369C45.1623 44.9742 45.8495 45.5372 46.5372 46.0059C46.8811 46.2557 47.0997 46.6624 47.5375 46.8185V46.7249C47.3185 46.4434 47.256 46.0372 47.0374 45.7246C46.7251 45.412 46.4122 45.1307 46.0996 44.8181C45.1932 43.5993 44.068 42.5364 42.849 41.6613C41.8489 40.9736 39.6606 40.0359 39.2544 38.8793C39.2544 38.8793 39.223 38.8482 39.1919 38.8169C39.8795 38.7544 40.6921 38.5043 41.3487 38.3168C42.4114 38.0353 43.3803 38.098 44.4744 37.8166C44.9744 37.6916 45.4745 37.5353 45.9745 37.379V37.0978C45.4122 36.5351 45.0058 35.785 44.4119 35.2536C42.8178 33.878 41.0672 32.5341 39.2544 31.4089C38.2854 30.7837 37.0349 30.3773 36.0035 29.8461C35.6288 29.6584 35.0034 29.5648 34.7847 29.2522C34.2219 28.5646 33.9093 27.6582 33.503 26.8455C32.5969 25.1261 31.7214 23.2196 30.9399 21.4069C30.3775 20.1877 30.0337 18.9685 29.3459 17.8435C26.1265 12.5298 22.6257 9.31033 17.2496 6.15321C16.093 5.49692 14.7177 5.21557 13.2486 4.87189C12.4675 4.84045 11.6858 4.77811 10.9044 4.74667C10.4043 4.52784 9.90411 3.93408 9.46647 3.65273C7.68516 2.52736 3.09006 0.0895806 1.7773 3.30905C0.933266 5.34061 3.02771 7.34092 3.74635 8.3727C4.27813 9.09151 4.9655 9.9041 5.34063 10.7169C5.55945 11.2479 5.62179 11.811 5.84062 12.3735C6.34096 13.7484 6.80951 15.2804 7.46616 16.562C7.81002 17.2183 8.18497 17.9059 8.62261 18.4998C8.8727 18.8435 9.31016 19 9.40413 19.5625C8.96666 20.1877 8.93522 21.1255 8.68496 21.9068C7.55976 25.4389 7.99759 29.8148 9.59151 32.4091C10.0915 33.1902 11.2794 34.9099 12.8735 34.2533C14.2802 33.6908 13.9676 31.9091 14.3736 30.3463C14.4678 29.9708 14.4053 29.7211 14.5926 29.471V29.5337C15.0303 30.4086 15.4678 31.2528 15.8741 32.1279C16.8432 33.6593 18.5309 35.2536 19.9375 36.3165C20.6879 36.8788 21.2817 37.8479 22.2195 38.1917V38.0978H22.1568C21.9692 37.8164 21.6879 37.6916 21.438 37.4726C20.8754 36.9102 20.2501 36.2225 19.8126 35.5973C18.5 33.8467 17.3432 31.9089 16.3118 29.9084C15.8118 28.9397 15.374 27.8769 14.9678 26.908C14.78 26.5325 14.78 25.9702 14.4676 25.7828C13.9987 26.4703 13.3111 27.0643 12.9673 27.9081C12.3737 29.2522 12.311 30.9088 12.0922 32.6277C11.9671 32.6594 12.0295 32.6277 11.9669 32.6906C10.967 32.4402 10.6231 31.4089 10.2478 30.5337C9.30999 28.3145 9.15368 24.7512 9.96663 22.1882C10.1855 21.5317 11.1233 19.4689 10.7481 18.8437C10.5606 18.2497 9.93519 17.9059 9.59151 17.4371C9.1853 16.8432 8.74748 16.0933 8.46631 15.4367C7.71606 13.6863 7.34094 11.7483 6.52834 9.99788C6.15322 9.18511 5.49711 8.34144 4.9655 7.59119C4.37173 6.74733 3.71526 6.15321 3.24636 5.15305C3.09024 4.80937 2.87123 4.24668 3.12132 3.87155C3.18384 3.62147 3.3087 3.52787 3.55896 3.46535C3.96535 3.1213 5.12198 3.55895 5.52801 3.74651C6.68465 4.21506 7.65354 4.65307 8.62261 5.30935C9.06008 5.62196 9.52899 6.21591 10.0915 6.37221H10.748C11.7483 6.59085 12.8733 6.43473 13.8111 6.71589C15.4679 7.24714 16.9681 8.02865 18.3123 8.87268C22.407 11.4669 25.7824 15.1553 28.0645 19.5625C28.4396 20.2811 28.5957 20.938 28.9396 21.6878C29.5962 23.2196 30.4088 24.7824 31.0649 26.2828C31.7214 27.7517 32.3464 29.2522 33.2842 30.4713C33.7531 31.1274 35.6284 31.4715 36.4724 31.8153C37.0976 32.0965 38.0667 32.3468 38.6292 32.6904C39.6919 33.3466 40.7546 34.0972 41.7549 34.8158C42.2551 35.1909 43.8177 35.9724 43.9117 36.5975V36.5975Z" fill="#00546B"/>
<path d="M12.0288 9.43501C11.4975 9.43501 11.1226 9.49789 10.7475 9.5915V9.65402H10.81C11.0603 10.1542 11.4975 10.498 11.81 10.9355C12.0602 11.4355 12.2789 11.9358 12.5291 12.436C12.5602 12.4046 12.5915 12.3735 12.5915 12.3735C13.0293 12.0607 13.2479 11.5607 13.2479 10.8105C13.0604 10.5918 13.0291 10.373 12.8728 10.1542C12.6854 9.8414 12.2789 9.68528 12.0288 9.43501V9.43501Z" fill="#00546B"/>
</g>
<defs>
<clipPath id="clip0">
<rect width="46" height="45.2737" fill="white" transform="translate(1.57141 1.70578)"/>
</clipPath>
</defs>
</svg>
