<svg width="48" height="49" viewBox="0 0 48 49" fill="none" xmlns="http://www.w3.org/2000/svg">
<g clip-path="url(#clip0)">
<path d="M17.3963 20.0284L34.6905 45.473L37.0716 44.1161L17.3594 14.3696C16.6302 13.1655 14.057 13.2792 14.057 14.6645V35.7781C14.057 37.5232 17.3963 37.5232 17.3963 35.7781V20.0284Z" fill="#F2F2F2"/>
<path d="M30.65 27.987L34 33.1036L33.9999 13.9796C33.9999 12.6735 30.65 12.6735 30.65 13.9796V27.987Z" fill="#F2F2F2"/>
<path d="M36.2249 3.32888C20.3494 -6.00571 0.176743 5.39532 0.00114969 23.8014C-0.170225 41.7748 18.8508 53.3838 34.6905 45.473L17.3963 20.0284V35.7781C17.3963 37.5232 14.057 37.5232 14.057 35.7781V14.6645C14.057 13.2792 16.6302 13.1655 17.3594 14.3696L37.0716 44.1161C51.8794 34.5783 51.6794 12.4159 36.2249 3.32888ZM33.9978 33.1357L30.6478 28.0191V14.0117C30.6478 12.7056 33.9977 12.7056 33.9977 14.0117L33.9978 33.1357Z" fill="black"/>
</g>
<defs>
<clipPath id="clip0">
<rect width="48" height="48" fill="white" transform="translate(0 0.342651)"/>
</clipPath>
</defs>
</svg>
