<svg width="49" height="49" viewBox="0 0 49 49" fill="none" xmlns="http://www.w3.org/2000/svg">
<g clip-path="url(#clip0)">
<path d="M24.1432 46.261C23.538 46.261 22.9732 46.0997 22.4487 45.8172L17.0823 42.6298C16.2754 42.1859 16.6789 42.0246 16.921 41.9439C18.0103 41.5808 18.212 41.5001 19.3417 40.8544C19.4629 40.7737 19.6243 40.814 19.7452 40.8947L23.8608 43.356C24.0222 43.4367 24.2239 43.4367 24.3449 43.356L40.4438 34.0357C40.6051 33.9551 40.6858 33.7937 40.6858 33.5919V14.9915C40.6858 14.7898 40.6051 14.6284 40.4438 14.5477L24.3449 5.26766C24.1836 5.18697 23.9818 5.18697 23.8608 5.26766L7.76196 14.5479C7.60058 14.6285 7.51989 14.8303 7.51989 14.9917V33.5919C7.51989 33.7533 7.60058 33.9551 7.76196 34.0357L12.16 36.5775C14.5406 37.7879 16.0332 36.3758 16.0332 34.9637V16.6053C16.0332 16.3633 16.2351 16.1212 16.5175 16.1212H18.5753C18.8174 16.1212 19.0595 16.3229 19.0595 16.6053V34.9635C19.0595 38.151 17.3244 40.007 14.2983 40.007C13.3704 40.007 12.6441 40.007 10.5865 38.9983L6.34985 36.5775C5.30086 35.9722 4.65532 34.8425 4.65532 33.6321V15.032C4.65532 13.8216 5.30086 12.6919 6.34985 12.0866L22.4487 2.76636C23.4573 2.20152 24.8291 2.20152 25.8377 2.76636L41.9366 12.0866C42.9856 12.6918 43.6311 13.8215 43.6311 15.032V33.6323C43.6311 34.8427 42.9856 35.9724 41.9366 36.5775L25.8377 45.8981C25.3132 46.1402 24.7081 46.2612 24.1432 46.2612V46.261ZM29.1059 33.4707C22.0451 33.4707 20.5926 30.2431 20.5926 27.4994C20.5926 27.2573 20.7943 27.0152 21.0768 27.0152H23.1748C23.4168 27.0152 23.6187 27.1766 23.6187 27.4187C23.9415 29.557 24.8694 30.6062 29.1463 30.6062C32.5355 30.6062 33.9881 29.8396 33.9881 28.024C33.9881 26.9749 33.5846 26.2083 28.299 25.6837C23.9011 25.2399 21.1574 24.2715 21.1574 20.7614C21.1574 17.4931 23.901 15.5565 28.5007 15.5565C33.6652 15.5565 36.2071 17.3317 36.5299 21.2051C36.5299 21.3261 36.4895 21.4472 36.4089 21.5682C36.3282 21.6489 36.2071 21.7296 36.0861 21.7296H33.9881C33.7862 21.7296 33.5846 21.5682 33.5441 21.3665C33.06 19.1475 31.8093 18.4212 28.5007 18.4212C24.7889 18.4212 24.3449 19.7123 24.3449 20.6806C24.3449 21.8508 24.8694 22.2138 29.8725 22.8593C34.8354 23.5048 37.1754 24.4329 37.1754 27.9028C37.1351 31.4534 34.2302 33.4707 29.1059 33.4707V33.4707Z" fill="#539E43"/>
</g>
<defs>
<clipPath id="clip0">
<rect width="38.984" height="44" fill="white" transform="translate(4.65085 2.34265)"/>
</clipPath>
</defs>
</svg>
