<svg width="19" height="20" viewBox="0 0 19 20" fill="none" xmlns="http://www.w3.org/2000/svg">
<g clip-path="url(#clip0)">
<path d="M9.73 19.9629C9.45491 19.9629 9.19816 19.8896 8.95975 19.7612L6.52051 18.3123C6.15373 18.1106 6.33712 18.0372 6.44716 18.0006C6.94231 17.8355 7.03401 17.7988 7.5475 17.5053C7.60259 17.4686 7.67595 17.487 7.7309 17.5237L9.60162 18.6424C9.67498 18.6791 9.76667 18.6791 9.82169 18.6424L17.1393 14.406C17.2127 14.3693 17.2494 14.2959 17.2494 14.2042V5.74948C17.2494 5.65778 17.2127 5.58443 17.1393 5.54775L9.82169 1.32955C9.74833 1.29287 9.65664 1.29287 9.60162 1.32955L2.28398 5.54782C2.21062 5.5845 2.17394 5.67619 2.17394 5.74955V14.2042C2.17394 14.2776 2.21062 14.3693 2.28398 14.406L4.28308 15.5613C5.36515 16.1115 6.04363 15.4696 6.04363 14.8278V6.48304C6.04363 6.37301 6.13539 6.26298 6.26377 6.26298H7.19913C7.30917 6.26298 7.4192 6.35467 7.4192 6.48304V14.8277C7.4192 16.2765 6.63055 17.1201 5.25505 17.1201C4.83325 17.1201 4.50314 17.1201 3.56785 16.6617L1.64211 15.5613C1.16529 15.2862 0.871864 14.7727 0.871864 14.2225V5.76789C0.871864 5.21772 1.16529 4.70422 1.64211 4.42907L8.95975 0.192595C9.41823 -0.0641525 10.0418 -0.0641525 10.5002 0.192595L17.8179 4.42907C18.2947 4.70415 18.5881 5.21765 18.5881 5.76789V14.2226C18.5881 14.7727 18.2947 15.2862 17.8179 15.5613L10.5002 19.7979C10.2618 19.908 9.98674 19.963 9.73 19.963V19.9629ZM11.9858 14.1491C8.77629 14.1491 8.11609 12.682 8.11609 11.4349C8.11609 11.3248 8.20778 11.2148 8.33615 11.2148H9.28979C9.39982 11.2148 9.49159 11.2882 9.49159 11.3982C9.6383 12.3702 10.0601 12.8471 12.0041 12.8471C13.5447 12.8471 14.2049 12.4986 14.2049 11.6734C14.2049 11.1965 14.0216 10.848 11.619 10.6095C9.61996 10.4078 8.37283 9.96768 8.37283 8.37218C8.37283 6.88657 9.61989 6.0063 11.7107 6.0063C14.0582 6.0063 15.2136 6.81322 15.3603 8.57384C15.3603 8.62886 15.342 8.68388 15.3053 8.73889C15.2686 8.77557 15.2136 8.81225 15.1586 8.81225H14.2049C14.1132 8.81225 14.0216 8.73889 14.0031 8.6472C13.7831 7.63855 13.2146 7.30844 11.7107 7.30844C10.0235 7.30844 9.82169 7.89529 9.82169 8.33543C9.82169 8.86734 10.0601 9.03232 12.3342 9.32574C14.5901 9.61917 15.6537 10.041 15.6537 11.6183C15.6354 13.2322 14.315 14.1491 11.9858 14.1491Z" fill="#4E6172"/>
</g>
<defs>
<clipPath id="clip0">
<rect width="17.72" height="20" fill="white" transform="translate(0.869995)"/>
</clipPath>
</defs>
</svg>
