<svg width="43" height="48" viewBox="0 0 43 48" fill="none" xmlns="http://www.w3.org/2000/svg">
<g clip-path="url(#clip0)">
<path d="M21.5 47.911C20.8398 47.911 20.2236 47.7349 19.6514 47.4268L13.7972 43.9496C12.9169 43.4654 13.3571 43.2894 13.6212 43.2013C14.8095 42.8052 15.0296 42.7172 16.262 42.0128C16.3942 41.9248 16.5703 41.9688 16.7021 42.0568L21.1919 44.7418C21.3679 44.8298 21.588 44.8298 21.72 44.7418L39.2824 34.5743C39.4585 34.4862 39.5465 34.3102 39.5465 34.0901V13.7987C39.5465 13.5787 39.4585 13.4026 39.2824 13.3146L21.72 3.19091C21.544 3.10289 21.3239 3.10289 21.1919 3.19091L3.62953 13.3148C3.45347 13.4028 3.36545 13.6229 3.36545 13.7989V34.0901C3.36545 34.2662 3.45347 34.4862 3.62953 34.5743L8.42737 37.3471C11.0244 38.6676 12.6527 37.1271 12.6527 35.5866V15.5593C12.6527 15.2952 12.8729 15.0311 13.181 15.0311H15.4259C15.69 15.0311 15.9541 15.2512 15.9541 15.5593V35.5864C15.9541 39.0637 14.0613 41.0883 10.7601 41.0883C9.74779 41.0883 8.95554 41.0883 6.71083 39.988L2.08904 37.3471C0.944685 36.6868 0.240463 35.4544 0.240463 34.134V13.8429C0.240463 12.5225 0.944685 11.2901 2.08904 10.6298L19.6514 0.462222C20.7517 -0.153972 22.2482 -0.153972 23.3486 0.462222L40.9109 10.6298C42.0553 11.29 42.7595 12.5223 42.7595 13.8429V34.1341C42.7595 35.4546 42.0553 36.6869 40.9109 37.3471L23.3486 47.515C22.7764 47.7791 22.1162 47.9111 21.5 47.9111V47.911ZM26.9138 33.9579C19.2111 33.9579 17.6266 30.4368 17.6266 27.4437C17.6266 27.1796 17.8467 26.9155 18.1548 26.9155H20.4435C20.7076 26.9155 20.9278 27.0916 20.9278 27.3557C21.2799 29.6884 22.2922 30.8329 26.9579 30.8329C30.6552 30.8329 32.2399 29.9967 32.2399 28.016C32.2399 26.8715 31.7997 26.0353 26.0336 25.4629C21.2359 24.9788 18.2428 23.9224 18.2428 20.0932C18.2428 16.5278 21.2357 14.4151 26.2536 14.4151C31.8876 14.4151 34.6606 16.3517 35.0127 20.5772C35.0127 20.7093 34.9687 20.8413 34.8807 20.9733C34.7927 21.0614 34.6606 21.1494 34.5286 21.1494H32.2399C32.0196 21.1494 31.7997 20.9733 31.7555 20.7533C31.2274 18.3325 29.8629 17.5403 26.2536 17.5403C22.2044 17.5403 21.72 18.9487 21.72 20.005C21.72 21.2816 22.2922 21.6776 27.7501 22.3818C33.1641 23.086 35.717 24.0985 35.717 27.8838C35.6729 31.7572 32.5039 33.9579 26.9138 33.9579Z" fill="#539E43"/>
</g>
<defs>
<clipPath id="clip0">
<rect width="42.528" height="48" fill="white" transform="translate(0.235992)"/>
</clipPath>
</defs>
</svg>
