<svg width="48" height="48" viewBox="0 0 48 48" fill="none" xmlns="http://www.w3.org/2000/svg">
<g clip-path="url(#clip0)">
<path d="M8.922 8.4135C10.407 9.624 10.9695 9.5385 13.773 9.351L40.203 7.7655C40.7655 7.7655 40.2975 7.203 40.1085 7.1085L35.718 3.936C34.8825 3.279 33.7575 2.538 31.608 2.7165L6.0225 4.5915C5.085 4.677 4.8975 5.1465 5.2725 5.5215L8.922 8.4135ZM10.5075 14.5785V42.3825C10.5075 43.875 11.25 44.4375 12.93 44.343L41.9775 42.663C43.6575 42.5685 43.8525 41.5455 43.8525 40.3275V12.711C43.8525 11.4915 43.383 10.8435 42.3525 10.938L12.0015 12.711C10.8765 12.8055 10.509 13.359 10.509 14.571L10.5075 14.5785ZM39.18 16.062C39.3675 16.9065 39.18 17.742 38.3355 17.844L36.9375 18.126V38.649C35.718 39.306 34.602 39.681 33.672 39.681C32.172 39.681 31.797 39.2115 30.6795 37.8135L21.5235 23.439V37.3455L24.4215 38.0025C24.4215 38.0025 24.4215 39.6825 22.086 39.6825L15.6405 40.0575C15.453 39.6825 15.6405 38.745 16.2975 38.565L17.9775 38.0955V19.713L15.642 19.5255C15.4545 18.681 15.924 17.4705 17.2275 17.3775L24.141 16.908L33.672 31.47V18.5865L31.242 18.3045C31.0545 17.2815 31.797 16.5315 32.7345 16.4445L39.18 16.062ZM3.8745 2.07L30.492 0.109499C33.7575 -0.172501 34.602 0.0149992 36.6555 1.5075L45.156 7.4835C46.554 8.5065 47.0235 8.7885 47.0235 9.906V42.6645C47.0235 44.7195 46.2735 45.93 43.6635 46.1175L12.741 47.985C10.788 48.0795 9.8505 47.7975 8.8185 46.4925L2.5605 38.367C1.443 36.8745 0.975 35.757 0.975 34.4535V5.337C0.975 3.657 1.725 2.259 3.873 2.0715L3.8745 2.07Z" fill="black"/>
</g>
<defs>
<clipPath id="clip0">
<rect width="48" height="48" fill="white"/>
</clipPath>
</defs>
</svg>
