<svg width="49" height="49" viewBox="0 0 49 49" fill="none" xmlns="http://www.w3.org/2000/svg">
<g clip-path="url(#clip0)">
<path d="M21.1507 25.2937H24.3224L22.6453 22.5015L19.5672 27.5499H18.1664L21.9103 21.4857C22.0731 21.2407 22.3444 21.0927 22.6453 21.0927C22.9363 21.0927 23.2076 21.2356 23.3655 21.4755L27.1242 27.5499H25.7234L25.0624 26.4218H21.8513L21.1508 25.2937H21.1507ZM35.7021 26.4217V21.1539H34.5134V26.9373C34.5134 27.0955 34.5725 27.2487 34.686 27.3661C34.7994 27.4835 34.9523 27.5499 35.12 27.5499H40.541L41.2415 26.4218H35.702L35.7021 26.4217ZM16.0354 25.4773C17.1898 25.4773 18.127 24.5126 18.127 23.3182C18.127 22.1236 17.1898 21.1538 16.0354 21.1538H10.8349V27.55H12.0233V22.2821H15.9566C16.5091 22.2821 16.953 22.7467 16.953 23.3184C16.953 23.89 16.5091 24.3545 15.9566 24.3545L12.6054 24.3494L16.1538 27.55H17.8803L15.4929 25.4775H16.0355L16.0354 25.4773ZM3.51986 27.5499C1.81363 27.55 0.428955 26.1206 0.428955 24.3545C0.428955 22.5882 1.81363 21.154 3.51986 21.154H7.11232C8.81893 21.154 10.2026 22.5882 10.2026 24.3545C10.2026 26.1206 8.81893 27.5499 7.11223 27.5499H3.51986ZM7.03245 26.4218C8.13784 26.4218 9.03314 25.4978 9.03314 24.3544C9.03314 23.2111 8.13784 22.2821 7.03245 22.2821H3.59936C2.49434 22.2821 1.59857 23.2111 1.59857 24.3545C1.59857 25.4978 2.49434 26.4218 3.59926 26.4218H7.03235H7.03245ZM29.6053 27.5499C27.8987 27.5499 26.5125 26.1206 26.5125 24.3545C26.5125 22.5882 27.8987 21.154 29.6053 21.154H33.8722L33.1766 22.2821H29.6843C28.5793 22.2821 27.6816 23.2111 27.6816 24.3545C27.6816 25.4978 28.5793 26.4218 29.6843 26.4218H33.9707L33.2703 27.5499H29.6053ZM44.142 26.4218C43.2295 26.4218 42.455 25.7889 42.2183 24.9159H47.2989L47.9993 23.7878H42.2183C42.455 22.92 43.2295 22.2821 44.142 22.2821H47.6295L48.3347 21.1538H44.063C42.3563 21.1538 40.9702 22.5881 40.9702 24.3543C40.9702 26.1205 42.3563 27.5498 44.063 27.5498H47.728L48.4284 26.4218H44.1419H44.142Z" fill="#EA1B22"/>
</g>
<defs>
<clipPath id="clip0">
<rect width="48" height="6.5" fill="white" transform="translate(0.428558 21.0927)"/>
</clipPath>
</defs>
</svg>
