<svg width="48" height="49" viewBox="0 0 48 49" fill="none" xmlns="http://www.w3.org/2000/svg">
<g clip-path="url(#clip0)">
<path d="M23.7969 0.450829C11.6413 0.450829 12.4003 5.7222 12.4003 5.7222L12.4138 11.1835H24.0136V12.8231H7.80651C7.80651 12.8231 0.0281677 11.941 0.0281677 24.2058C0.0281677 36.4711 6.81729 36.0361 6.81729 36.0361H10.869V30.3445C10.869 30.3445 10.6506 23.5554 17.5498 23.5554H29.0547C29.0547 23.5554 35.5186 23.6599 35.5186 17.3083V6.80647C35.5186 6.80647 36.5003 0.450829 23.7969 0.450829ZM17.4007 4.12344C17.6748 4.1232 17.9463 4.17701 18.1996 4.28179C18.4529 4.38657 18.683 4.54028 18.8769 4.7341C19.0707 4.92793 19.2244 5.15807 19.3292 5.41137C19.434 5.66466 19.4878 5.93613 19.4875 6.21024C19.4878 6.48435 19.434 6.75583 19.3292 7.00912C19.2244 7.26241 19.0707 7.49256 18.8769 7.68638C18.683 7.88021 18.4529 8.03391 18.1996 8.1387C17.9463 8.24348 17.6748 8.29729 17.4007 8.29704C17.1266 8.29729 16.8551 8.24348 16.6018 8.1387C16.3486 8.03391 16.1184 7.88021 15.9246 7.68638C15.7308 7.49256 15.5771 7.26241 15.4723 7.00912C15.3675 6.75583 15.3137 6.48435 15.3139 6.21024C15.3137 5.93613 15.3675 5.66466 15.4723 5.41137C15.5771 5.15807 15.7308 4.92793 15.9246 4.7341C16.1184 4.54028 16.3486 4.38657 16.6018 4.28179C16.8551 4.17701 17.1266 4.1232 17.4007 4.12344V4.12344Z" fill="url(#paint0_linear)"/>
<path d="M24.1419 48.0842C36.2975 48.0842 35.5385 42.8128 35.5385 42.8128L35.525 37.3517H23.925V35.7121H40.1321C40.1321 35.7121 47.9104 36.5942 47.9104 24.329C47.9104 12.0639 41.1213 12.4989 41.1213 12.4989H37.0696V18.1903C37.0696 18.1903 37.288 24.9794 30.3888 24.9794H18.8839C18.8839 24.9794 12.4201 24.875 12.4201 31.2267V41.7287C12.4201 41.7287 11.4385 48.0842 24.1417 48.0842H24.1419ZM30.5381 44.4119C30.264 44.4122 29.9925 44.3584 29.7392 44.2536C29.4859 44.1488 29.2558 43.9951 29.0619 43.8013C28.8681 43.6074 28.7144 43.3773 28.6096 43.124C28.5048 42.8707 28.451 42.5992 28.4513 42.3251C28.451 42.051 28.5048 41.7795 28.6096 41.5262C28.7143 41.2729 28.868 41.0427 29.0619 40.8489C29.2557 40.655 29.4859 40.5013 29.7392 40.3965C29.9925 40.2917 30.2639 40.2379 30.5381 40.2381C30.8122 40.2379 31.0837 40.2917 31.337 40.3965C31.5902 40.5013 31.8204 40.655 32.0142 40.8488C32.208 41.0426 32.3617 41.2728 32.4665 41.5261C32.5713 41.7794 32.6251 42.0508 32.6249 42.3249C32.6251 42.599 32.5713 42.8705 32.4665 43.1238C32.3617 43.3771 32.208 43.6072 32.0142 43.8011C31.8204 43.9949 31.5902 44.1486 31.337 44.2534C31.0837 44.3582 30.8122 44.412 30.5381 44.4117V44.4119Z" fill="url(#paint1_linear)"/>
</g>
<defs>
<linearGradient id="paint0_linear" x1="4.62965" y1="4.73517" x2="28.3587" y2="28.2275" gradientUnits="userSpaceOnUse">
<stop stop-color="#387EB8"/>
<stop offset="1" stop-color="#366994"/>
</linearGradient>
<linearGradient id="paint1_linear" x1="19.1944" y1="19.8205" x2="44.6767" y2="43.9097" gradientUnits="userSpaceOnUse">
<stop stop-color="#FFE052"/>
<stop offset="1" stop-color="#FFC331"/>
</linearGradient>
<clipPath id="clip0">
<rect width="48" height="47.8107" fill="white" transform="translate(0 0.437279)"/>
</clipPath>
</defs>
</svg>
