<svg width="49" height="48" viewBox="0 0 49 48" fill="none" xmlns="http://www.w3.org/2000/svg">
<g clip-path="url(#clip0)">
<path d="M40.034 16.4683C39.5233 16.2931 39.0082 16.1307 38.4893 15.9814C38.5765 15.6253 38.6567 15.2734 38.728 14.9277C39.8974 9.25098 39.1329 4.6777 36.5216 3.17196C34.018 1.72845 29.9235 3.23363 25.7884 6.83245C25.3808 7.18777 24.9823 7.55332 24.5933 7.92876C24.3328 7.67911 24.0677 7.43429 23.7982 7.19445C19.4643 3.34649 15.1203 1.72471 12.5119 3.23476C10.0105 4.68276 9.26983 8.98196 10.3227 14.3619C10.4274 14.8947 10.5457 15.4248 10.6773 15.9516C10.0624 16.1264 9.46911 16.3123 8.90127 16.5103C3.82014 18.2819 0.575264 21.0581 0.575264 23.9378C0.575264 26.9119 4.05879 29.8951 9.35101 31.704C9.78006 31.85 10.2127 31.9854 10.6485 32.1099C10.5069 32.6773 10.3813 33.2485 10.2717 33.8229C9.26796 39.1095 10.0518 43.3071 12.5464 44.7459C15.123 46.2318 19.4475 44.7047 23.6582 41.0238C23.9996 40.7245 24.3335 40.4168 24.6596 40.1009C25.081 40.5074 25.5136 40.9021 25.9569 41.2845C30.0358 44.7943 34.0641 46.2116 36.5563 44.7688C39.1305 43.2786 39.9671 38.7693 38.8809 33.283C38.7954 32.8532 38.6994 32.4255 38.5932 32.0004C38.8969 31.9104 39.1949 31.8178 39.4855 31.7214C44.9873 29.8987 48.567 26.9517 48.567 23.9378C48.567 21.0476 45.2173 18.2526 40.034 16.4683V16.4683ZM38.8408 29.7755C38.5784 29.8623 38.3092 29.9461 38.0347 30.0277C37.4273 28.1048 36.6077 26.0603 35.6046 23.9477C36.5618 21.8856 37.3499 19.8671 37.9402 17.9568C38.4312 18.0989 38.9076 18.2487 39.3668 18.4067C43.808 19.9357 46.5169 22.196 46.5169 23.9378C46.5169 25.7929 43.5912 28.2013 38.8408 29.7755V29.7755ZM36.8698 33.6812C37.3501 36.1071 37.4185 38.3004 37.1004 40.0152C36.8147 41.556 36.2399 42.5831 35.529 42.9946C34.0167 43.8701 30.7823 42.7322 27.2941 39.7304C26.8817 39.3749 26.4793 39.0079 26.0874 38.63C27.4398 37.1511 28.7912 35.4318 30.1103 33.5222C32.4304 33.3164 34.6222 32.9797 36.6099 32.5202C36.7078 32.9152 36.7948 33.3025 36.8698 33.6812V33.6812ZM16.9367 42.8433C15.4591 43.3651 14.2822 43.3801 13.5707 42.9699C12.0569 42.0968 11.4276 38.7264 12.286 34.2054C12.388 33.6711 12.5049 33.1398 12.6364 32.6121C14.6022 33.047 16.7781 33.3597 19.1036 33.5483C20.4317 35.4168 21.8221 37.1342 23.2234 38.6381C22.9256 38.9262 22.6208 39.207 22.3092 39.4802C20.447 41.1078 18.5812 42.2626 16.9367 42.8433V42.8433ZM10.0143 29.7641C7.67411 28.9642 5.7415 27.9246 4.41685 26.7903C3.22643 25.771 2.6256 24.7589 2.6256 23.9378C2.6256 22.1902 5.23084 19.9612 9.57615 18.4463C10.1035 18.2626 10.6554 18.0891 11.2281 17.9264C11.8288 19.8798 12.6165 21.9223 13.5672 23.9876C12.6041 26.0835 11.8051 28.1586 11.1987 30.1351C10.8009 30.0211 10.406 29.8974 10.0143 29.7641V29.7641ZM12.3347 13.968C11.4328 9.35877 12.0318 5.8818 13.5392 5.00914C15.1447 4.07968 18.695 5.40489 22.437 8.72757C22.681 8.94472 22.9211 9.16628 23.1571 9.39214C21.7627 10.8894 20.385 12.5941 19.0688 14.4515C16.8117 14.6607 14.6511 14.9967 12.6647 15.4468C12.5423 14.9568 12.4323 14.4638 12.3347 13.9682V13.968ZM33.0362 19.0799C32.5671 18.2695 32.0805 17.4692 31.5768 16.6798C33.108 16.8734 34.5752 17.1304 35.9529 17.4446C35.5393 18.7704 35.0238 20.1564 34.4169 21.5774C33.9734 20.7358 33.5131 19.9031 33.0362 19.0799V19.0799ZM24.5942 10.8574C25.5398 11.8819 26.4869 13.0256 27.4184 14.2667C25.5287 14.1774 23.6359 14.1771 21.7462 14.2656C22.6787 13.036 23.6338 11.8937 24.5942 10.8574ZM16.098 19.094C15.6271 19.9106 15.1754 20.738 14.7431 21.5757C14.1462 20.1597 13.6354 18.7674 13.2183 17.4229C14.5875 17.1166 16.0477 16.8661 17.5692 16.676C17.0599 17.4703 16.5694 18.2765 16.098 19.0938V19.094ZM17.6129 31.3454C16.041 31.1699 14.5589 30.9324 13.19 30.6343C13.6136 29.2658 14.1357 27.8438 14.7456 26.3975C15.1795 27.2358 15.6331 28.0638 16.106 28.8807C16.5923 29.7206 17.0959 30.5432 17.6129 31.3454ZM24.6508 37.1625C23.679 36.1142 22.7098 34.9543 21.7632 33.7069C22.6822 33.7429 23.619 33.7613 24.5711 33.7613C25.5493 33.7613 26.5163 33.7393 27.4681 33.697C26.5336 34.9669 25.59 36.1284 24.6508 37.1625ZM34.4363 26.3237C35.0778 27.7859 35.6184 29.2004 36.0477 30.5454C34.6563 30.863 33.154 31.1187 31.571 31.3086C32.0782 30.5045 32.5694 29.6903 33.0443 28.8667C33.5271 28.0294 33.9912 27.1816 34.4363 26.3237V26.3237ZM31.2684 27.8423C30.5415 29.1052 29.7736 30.3441 28.9661 31.557C27.5034 31.6606 26.0375 31.7121 24.5711 31.7113C23.0776 31.7113 21.6249 31.6648 20.226 31.5741C19.3974 30.3639 18.615 29.1229 17.8802 27.8536H17.8804C17.1491 26.591 16.4661 25.3011 15.8327 23.9867C16.4645 22.672 17.1455 21.3815 17.8742 20.1179L17.874 20.1181C18.6025 18.8542 19.3788 17.6185 20.2011 16.4136C21.6283 16.3056 23.0918 16.2493 24.571 16.2493H24.5711C26.057 16.2493 27.5224 16.3061 28.9493 16.4149C29.7633 17.618 30.5345 18.8495 31.2617 20.107C31.9929 21.3678 32.6829 22.652 33.3306 23.9576C32.6895 25.2766 32.0017 26.5723 31.2684 27.8423V27.8423ZM35.4977 4.94803C37.1047 5.87487 37.7297 9.61241 36.72 14.5138C36.6555 14.8265 36.5831 15.145 36.5044 15.468C34.5131 15.0083 32.3511 14.6665 30.0874 14.4541C28.7687 12.5763 27.4023 10.869 26.0306 9.39101C26.3901 9.04448 26.7581 8.70694 27.1344 8.37869C30.6775 5.2954 33.989 4.07799 35.4977 4.94803V4.94803ZM24.5711 19.6523C26.9379 19.6523 28.8567 21.571 28.8567 23.9378C28.8567 26.3045 26.9379 28.2233 24.5711 28.2233C22.2044 28.2233 20.2856 26.3045 20.2856 23.9378C20.2856 21.571 22.2044 19.6523 24.5711 19.6523V19.6523Z" fill="#00D8FF"/>
</g>
<defs>
<clipPath id="clip0">
<rect width="48" height="42.7427" fill="white" transform="translate(0.571411 2.62868)"/>
</clipPath>
</defs>
</svg>
