<svg width="23" height="20" viewBox="0 0 23 20" fill="none" xmlns="http://www.w3.org/2000/svg">
<g clip-path="url(#clip0)">
<path d="M18.8753 6.47579C18.6364 6.3938 18.3954 6.31784 18.1525 6.24798C18.1933 6.08132 18.2309 5.91667 18.2642 5.75491C18.8114 3.09868 18.4537 0.958772 17.2318 0.254211C16.0603 -0.421228 14.1445 0.28307 12.2096 1.96702C12.0189 2.13327 11.8324 2.30432 11.6503 2.48C11.5285 2.36318 11.4044 2.24863 11.2783 2.1364C9.25043 0.335877 7.2178 -0.422983 5.99728 0.283596C4.82684 0.96114 4.48026 2.97281 4.97289 5.49018C5.0219 5.73949 5.07724 5.98753 5.13886 6.23404C4.85114 6.31579 4.5735 6.40281 4.3078 6.49544C1.93026 7.32439 0.411926 8.62342 0.411926 9.97088C0.411926 11.3625 2.04193 12.7584 4.51824 13.6048C4.719 13.6732 4.92143 13.7365 5.12535 13.7947C5.05912 14.0602 5.00033 14.3275 4.94903 14.5963C4.47938 17.07 4.84614 19.0341 6.01342 19.7074C7.21903 20.4026 9.24254 19.6881 11.2128 17.9657C11.3726 17.8257 11.5288 17.6817 11.6814 17.5339C11.8786 17.7241 12.081 17.9088 12.2884 18.0877C14.197 19.73 16.0819 20.3932 17.2481 19.7181C18.4525 19.0208 18.844 16.9108 18.3358 14.3437C18.2957 14.1426 18.2509 13.9425 18.2011 13.7435C18.3432 13.7014 18.4827 13.6581 18.6187 13.613C21.1931 12.7601 22.8681 11.3811 22.8681 9.97088C22.8681 8.61851 21.3007 7.3107 18.8753 6.47579ZM18.317 12.7025C18.1942 12.7431 18.0682 12.7823 17.9398 12.8204C17.6556 11.9207 17.2721 10.964 16.8027 9.97553C17.2506 9.01061 17.6194 8.06614 17.8956 7.17228C18.1253 7.23877 18.3482 7.30886 18.5632 7.38281C20.6412 8.09825 21.9088 9.15588 21.9088 9.97088C21.9088 10.8389 20.5398 11.9659 18.317 12.7025ZM17.3947 14.53C17.6195 15.6651 17.6515 16.6914 17.5026 17.4938C17.3689 18.2147 17.1 18.6954 16.7674 18.8879C16.0597 19.2975 14.5463 18.7651 12.9141 17.3605C12.7212 17.1942 12.5329 17.0224 12.3495 16.8456C12.9823 16.1536 13.6146 15.3491 14.2318 14.4556C15.3175 14.3593 16.3431 14.2018 17.2732 13.9868C17.3189 14.1716 17.3596 14.3528 17.3947 14.53ZM8.06772 18.8171C7.37631 19.0612 6.82561 19.0682 6.49272 18.8763C5.78438 18.4678 5.48991 16.8907 5.89158 14.7753C5.93932 14.5253 5.99399 14.2767 6.05552 14.0297C6.97535 14.2332 7.99351 14.3796 9.08166 14.4678C9.70307 15.3421 10.3537 16.1457 11.0094 16.8494C10.87 16.9842 10.7274 17.1156 10.5816 17.2434C9.71026 18.005 8.83719 18.5454 8.06772 18.8171ZM4.82859 12.6971C3.73359 12.3228 2.82929 11.8364 2.20947 11.3056C1.65245 10.8287 1.37131 10.3551 1.37131 9.97088C1.37131 9.15316 2.59035 8.11018 4.62359 7.40132C4.87035 7.31535 5.12859 7.23421 5.39658 7.15807C5.67763 8.07211 6.04622 9.02781 6.49105 9.99421C6.04044 10.9749 5.66658 11.9459 5.3828 12.8707C5.19667 12.8174 5.01188 12.7595 4.82859 12.6971ZM5.91438 5.30588C5.49236 3.14912 5.77263 1.52219 6.47798 1.11386C7.22921 0.678947 8.89044 1.29903 10.6414 2.85377C10.7556 2.95538 10.8679 3.05906 10.9783 3.16474C10.3259 3.86535 9.68122 4.66298 9.06535 5.53211C8.00921 5.63 6.99824 5.78719 6.06877 5.99781C6.0115 5.76853 5.96002 5.53784 5.91438 5.30596V5.30588ZM15.601 7.69781C15.3814 7.31859 15.1537 6.94415 14.9181 6.57474C15.6346 6.66535 16.321 6.78561 16.9657 6.93263C16.7722 7.55298 16.531 8.20149 16.247 8.8664C16.0395 8.47261 15.8241 8.083 15.601 7.69781ZM11.6508 3.85035C12.0932 4.32974 12.5364 4.86491 12.9723 5.44561C12.0881 5.40385 11.2024 5.40368 10.3182 5.44509C10.7545 4.86974 11.2014 4.33526 11.6508 3.85035ZM7.67526 7.70439C7.45494 8.08648 7.24357 8.47366 7.04131 8.86561C6.76201 8.20307 6.52298 7.55158 6.3278 6.92246C6.96851 6.77912 7.65175 6.66193 8.36368 6.57298C8.12538 6.94465 7.89585 7.32186 7.67526 7.7043V7.70439ZM8.38412 13.437C7.64859 13.3549 6.95508 13.2438 6.31456 13.1043C6.5128 12.4639 6.7571 11.7986 7.04245 11.1218C7.24551 11.5141 7.45776 11.9015 7.67903 12.2838C7.90658 12.6768 8.14219 13.0617 8.38412 13.437ZM11.6773 16.1589C11.2225 15.6684 10.769 15.1257 10.3261 14.542C10.7561 14.5589 11.1945 14.5675 11.64 14.5675C12.0977 14.5675 12.5502 14.5572 12.9955 14.5374C12.5582 15.1316 12.1168 15.6751 11.6773 16.1589ZM16.256 11.0873C16.5562 11.7715 16.8092 12.4333 17.0101 13.0627C16.359 13.2113 15.656 13.331 14.9153 13.4198C15.1527 13.0436 15.3825 12.6626 15.6047 12.2772C15.8306 11.8854 16.0478 11.4887 16.256 11.0873ZM14.7738 11.7979C14.4336 12.3888 14.0743 12.9685 13.6965 13.5361C13.0121 13.5845 12.3261 13.6086 11.64 13.6082C10.9411 13.6082 10.2614 13.5865 9.60684 13.544C9.21914 12.9778 8.853 12.3971 8.50921 11.8032H8.50929C8.16712 11.2124 7.8475 10.6088 7.55114 9.99377C7.84675 9.37859 8.16539 8.77474 8.5064 8.18351L8.50631 8.1836C8.84719 7.59221 9.2104 7.01399 9.59517 6.45018C10.263 6.39965 10.9478 6.37333 11.6399 6.37333H11.64C12.3353 6.37333 13.021 6.39991 13.6886 6.45079C14.0695 7.01376 14.4304 7.58999 14.7706 8.17842C15.1128 8.76835 15.4356 9.36925 15.7387 9.98018C15.4387 10.5973 15.1169 11.2036 14.7738 11.7979ZM16.7527 1.08526C17.5046 1.51895 17.7971 3.26781 17.3246 5.56123C17.2945 5.70754 17.2606 5.85658 17.2238 6.00772C16.292 5.79263 15.2803 5.63272 14.2211 5.53333C13.6041 4.65465 12.9647 3.85579 12.3229 3.16421C12.4911 3.00206 12.6633 2.84412 12.8394 2.69053C14.4973 1.24781 16.0468 0.678158 16.7527 1.08526ZM11.64 7.96561C12.7475 7.96561 13.6453 8.86342 13.6453 9.97088C13.6453 11.0783 12.7475 11.9761 11.64 11.9761C10.5325 11.9761 9.63473 11.0783 9.63473 9.97088C9.63473 8.86342 10.5325 7.96561 11.64 7.96561Z" fill="#4E6172"/>
</g>
<defs>
<clipPath id="clip0">
<rect width="22.46" height="20" fill="white" transform="translate(0.410004)"/>
</clipPath>
</defs>
</svg>
