<svg width="54" height="54" viewBox="0 0 54 54" fill="none" xmlns="http://www.w3.org/2000/svg">
<g clip-path="url(#clip0)">
<path d="M44.3641 18.5419C43.7905 18.3451 43.2121 18.1628 42.6293 17.9952C42.7272 17.5952 42.8173 17.2 42.8973 16.8118C44.2106 10.4368 43.3521 5.30105 40.4196 3.6101C37.6081 1.98905 33.01 3.67936 28.3662 7.72084C27.9085 8.11985 27.461 8.53037 27.0241 8.95199C26.7316 8.67163 26.4339 8.3967 26.1312 8.12736C21.2643 3.8061 16.386 1.98484 13.4567 3.68063C10.6476 5.30673 9.81585 10.1347 10.9982 16.1764C11.1158 16.7748 11.2486 17.3701 11.3965 17.9617C10.706 18.1579 10.0396 18.3667 9.40195 18.589C3.69585 20.5785 0.0518494 23.6962 0.0518494 26.9301C0.0518494 30.2701 3.96385 33.6202 9.90701 35.6516C10.3888 35.8156 10.8747 35.9676 11.3641 36.1074C11.2051 36.7446 11.064 37.3861 10.9409 38.0312C9.81374 43.968 10.694 48.6819 13.4954 50.2977C16.3889 51.9663 21.2453 50.2514 25.974 46.1177C26.3574 45.7816 26.7324 45.436 27.0986 45.0813C27.5718 45.5378 28.0576 45.9811 28.5554 46.4105C33.1361 50.352 37.6599 51.9436 40.4586 50.3234C43.3493 48.6499 44.2889 43.5859 43.0691 37.4248C42.973 36.9422 42.8653 36.4619 42.746 35.9844C43.087 35.8834 43.4217 35.7794 43.7481 35.6712C49.9266 33.6242 53.9466 30.3147 53.9466 26.9301C53.9466 23.6844 50.1849 20.5457 44.3641 18.5419V18.5419ZM43.0241 33.4859C42.7293 33.5834 42.427 33.6775 42.1188 33.769C41.4367 31.6097 40.5163 29.3137 39.3897 26.9413C40.4647 24.6255 41.3497 22.3587 42.0127 20.2135C42.5641 20.373 43.099 20.5413 43.6148 20.7187C48.6022 22.4358 51.6443 24.9741 51.6443 26.9301C51.6443 29.0135 48.3588 31.7181 43.0241 33.4859V33.4859ZM40.8106 37.872C41.35 40.5962 41.4268 43.0594 41.0695 44.985C40.7487 46.7154 40.1032 47.8688 39.3049 48.3309C37.6066 49.3141 33.9744 48.0362 30.0571 44.6653C29.594 44.266 29.1421 43.8539 28.702 43.4295C30.2207 41.7686 31.7384 39.8379 33.2196 37.6935C35.8251 37.4623 38.2866 37.0842 40.5188 36.5682C40.6287 37.0118 40.7264 37.4467 40.8106 37.872V37.872ZM18.4257 48.161C16.7664 48.7469 15.4447 48.7638 14.6457 48.3032C12.9457 47.3227 12.239 43.5377 13.203 38.4606C13.3176 37.8607 13.4488 37.264 13.5965 36.6714C15.8041 37.1598 18.2476 37.5109 20.8592 37.7227C22.3506 39.821 23.9121 41.7497 25.4857 43.4385C25.1513 43.7621 24.809 44.0775 24.459 44.3842C22.3679 46.212 20.2725 47.5088 18.4257 48.161V48.161ZM10.6518 33.473C8.02385 32.5747 5.85353 31.4074 4.36596 30.1335C3.02911 28.9888 2.35438 27.8522 2.35438 26.9301C2.35438 24.9676 5.28006 22.4644 10.1599 20.7632C10.7521 20.5568 11.3719 20.3621 12.015 20.1794C12.6895 22.373 13.5742 24.6667 14.6417 26.9861C13.5603 29.3398 12.663 31.6701 11.982 33.8897C11.5352 33.7617 11.0917 33.6228 10.6518 33.473V33.473ZM13.2577 15.7341C12.2449 10.5579 12.9175 6.65326 14.6104 5.67326C16.4133 4.62947 20.4003 6.11768 24.6026 9.84905C24.8766 10.0929 25.1462 10.3417 25.4112 10.5954C23.8453 12.2768 22.2982 14.1912 20.8201 16.277C18.2853 16.512 15.859 16.8893 13.6283 17.3947C13.4908 16.8445 13.3673 16.2908 13.2577 15.7343V15.7341ZM36.5055 21.4747C35.9786 20.5646 35.4322 19.6659 34.8666 18.7794C36.5862 18.9968 38.2337 19.2855 39.7809 19.6383C39.3165 21.1272 38.7375 22.6836 38.0561 24.2794C37.5579 23.3343 37.041 22.3992 36.5055 21.4747V21.4747ZM27.0251 12.2408C28.087 13.3914 29.1506 14.6758 30.1967 16.0695C28.0746 15.9692 25.9489 15.9688 23.8268 16.0682C24.874 14.6874 25.9466 13.4046 27.0251 12.2408ZM17.4839 21.4905C16.9551 22.4075 16.4478 23.3368 15.9624 24.2775C15.2921 22.6874 14.7184 21.1238 14.25 19.6139C15.7876 19.2699 17.4274 18.9886 19.1361 18.7752C18.5641 19.6671 18.0133 20.5725 17.4839 21.4903V21.4905ZM19.1851 35.2488C17.4199 35.0518 15.7554 34.785 14.2182 34.4503C14.694 32.9135 15.2803 31.3166 15.9651 29.6924C16.4524 30.6338 16.9619 31.5636 17.4929 32.481C18.039 33.4242 18.6045 34.348 19.1851 35.2488ZM27.0887 41.7815C25.9973 40.6042 24.9089 39.3017 23.846 37.9008C24.878 37.9413 25.93 37.9619 26.9992 37.9619C28.0977 37.9619 29.1836 37.9373 30.2525 37.8897C29.203 39.3158 28.1434 40.6202 27.0887 41.7815ZM38.0777 29.6095C38.7982 31.2516 39.4053 32.84 39.8874 34.3505C38.3249 34.7072 36.6377 34.9943 34.8601 35.2076C35.4297 34.3045 35.9813 33.3902 36.5146 32.4653C37.0568 31.525 37.5779 30.5729 38.0777 29.6095V29.6095ZM34.5203 31.3149C33.7039 32.7331 32.8416 34.1244 31.9348 35.4865C30.2922 35.6029 28.6459 35.6606 26.9992 35.6598C25.322 35.6598 23.6906 35.6076 22.1196 35.5057C21.1892 34.1467 20.3104 32.753 19.4853 31.3276H19.4855C18.6643 29.9097 17.8972 28.4611 17.186 26.985C17.8954 25.5086 18.6602 24.0594 19.4786 22.6404L19.4784 22.6406C20.2965 21.2213 21.1682 19.8336 22.0916 18.4804C23.6944 18.3592 25.338 18.296 26.999 18.296H26.9992C28.6679 18.296 30.3135 18.3598 31.9159 18.4819C32.83 19.833 33.6961 21.216 34.5127 22.6282C35.3338 24.044 36.1087 25.4862 36.8361 26.9524C36.1162 28.4336 35.3437 29.8887 34.5203 31.3149V31.3149ZM39.2697 5.60463C41.0744 6.64547 41.7763 10.8427 40.6424 16.3469C40.57 16.6981 40.4887 17.0558 40.4003 17.4185C38.1641 16.9023 35.7361 16.5185 33.194 16.28C31.7131 14.1712 30.1786 12.2539 28.6382 10.5941C29.0419 10.2049 29.4552 9.82588 29.8777 9.45726C33.8567 5.99473 37.5754 4.62757 39.2697 5.60463V5.60463ZM26.9992 22.1175C29.6571 22.1175 31.8119 24.2722 31.8119 26.9301C31.8119 29.588 29.6571 31.7427 26.9992 31.7427C24.3413 31.7427 22.1866 29.588 22.1866 26.9301C22.1866 24.2722 24.3413 22.1175 26.9992 22.1175V22.1175Z" fill="#00D8FF"/>
</g>
<defs>
<clipPath id="clip0">
<rect width="53.904" height="48" fill="white" transform="translate(0.0480042 3)"/>
</clipPath>
</defs>
</svg>
