<svg width="49" height="48" viewBox="0 0 49 48" fill="none" xmlns="http://www.w3.org/2000/svg">
<g clip-path="url(#clip0)">
<path d="M8.05177 6.72725C17.5355 -2.46006 32.6994 -2.21312 41.8867 7.31994C42.924 5.93694 43.8131 4.40581 44.4553 2.82519C47.4684 12.0125 49.296 19.718 48.6043 25.6946C48.2585 30.7327 46.2828 35.5734 43.0228 39.4261C34.5271 49.5026 19.4124 50.7867 9.33596 42.2911L9.14321 42.1196L9.1329 42.1128C9.1014 42.0909 9.07027 42.0678 9.03952 42.044C8.94765 41.9726 8.86421 41.8947 8.78902 41.8115L8.76202 41.7807L8.44702 41.5008C8.13952 41.2374 7.83221 40.9739 7.55958 40.6758L7.45908 40.5622C-1.72842 31.0784 -1.43198 15.9146 8.05158 6.72725H8.05177ZM11.6079 38.8829C10.7188 38.1914 9.43458 38.2901 8.7429 39.1792C8.13502 39.9611 8.13802 41.0484 8.75208 41.7695L8.76183 41.7807L9.14302 42.1196L9.18052 42.1451C10.0438 42.7128 11.2055 42.5954 11.868 41.7929L11.9043 41.7478C12.5958 40.8586 12.4477 39.5744 11.6081 38.8828L11.6079 38.8829ZM44.2085 5.29475C41.7386 10.4812 35.6135 14.4327 30.3285 15.6676C25.3396 16.853 20.9928 15.8653 16.3993 17.6433C5.92777 21.6444 6.1254 34.0916 11.855 36.9071L12.2008 37.1047C12.2008 37.1047 16.3396 36.2818 20.4324 35.195L20.783 35.1013C22.4176 34.6606 24.0258 34.1806 25.3396 33.6965C32.156 31.1774 39.6641 24.9538 42.1336 17.7421C40.8495 25.25 34.3788 32.5109 27.908 35.8205C24.4505 37.5986 21.7833 37.9936 16.103 39.9695C15.4115 40.2164 14.8681 40.4636 14.8681 40.4636L15.0759 40.4354L15.2139 40.4176L15.3513 40.4004C16.6057 40.2447 17.733 40.1671 17.733 40.1671C25.7842 39.7719 38.4292 42.4393 44.3071 34.5856C50.3332 26.5837 46.9743 13.6424 44.2083 5.29475H44.2085Z" fill="#6DB33F"/>
<path d="M11.6083 38.883C12.4481 39.5745 12.5963 40.8587 11.9046 41.7478C11.2133 42.6369 9.92888 42.7357 9.03975 42.0441C8.15081 41.3526 8.052 40.0684 8.7435 39.1792C9.435 38.2901 10.7192 38.1915 11.6085 38.883H11.6083ZM44.2088 5.29481C46.9748 13.6425 50.3336 26.5837 44.3076 34.5857C38.4294 42.4393 25.7846 39.7719 17.7334 40.1672C17.7334 40.1672 16.6061 40.245 15.3518 40.4004L15.2143 40.4177C15.0996 40.4323 14.9841 40.4477 14.8686 40.4636C14.8686 40.4636 15.4119 40.2165 16.1034 39.9696C21.7838 37.9939 24.4509 37.5986 27.9084 35.8206C34.3793 32.5112 40.8499 25.2501 42.1341 17.7422C39.6645 24.9538 32.1564 31.1775 25.3401 33.6966C20.6477 35.4253 12.2012 37.1047 12.2012 37.1047L11.8554 36.9071C6.12581 34.0916 5.92819 21.6444 16.3997 17.6434C20.9934 15.8653 25.3401 16.8531 30.3291 15.6677C35.6141 14.4328 41.739 10.4814 44.2088 5.29481V5.29481Z" fill="white"/>
</g>
<defs>
<clipPath id="clip0">
<rect width="48" height="48" fill="white" transform="translate(0.75)"/>
</clipPath>
</defs>
</svg>
