<svg width="49" height="49" viewBox="0 0 49 49" fill="none" xmlns="http://www.w3.org/2000/svg">
<g clip-path="url(#clip0)">
<path d="M10.9464 6.93515C10.9464 6.93515 10.7997 7.16799 10.939 7.51265C11.0234 7.72532 11.28 7.98199 11.5624 8.25332C11.5624 8.25332 14.5232 11.1427 14.8862 11.5607C16.527 13.4545 17.2402 15.319 17.3062 17.8912C17.3465 19.5412 17.0294 20.9932 16.2557 22.6817C14.8697 25.7048 11.9474 29.0396 7.43737 32.7466L8.09737 32.5267C8.52454 32.2095 9.10204 31.8685 10.466 31.1223C13.6065 29.4063 17.132 27.826 21.4642 26.198C27.6957 23.8568 37.9459 21.1087 43.7795 20.2158L44.3864 20.1223L44.2947 19.9757C43.7594 19.147 43.3964 18.6355 42.9564 18.0928C41.6785 16.5107 40.1294 15.22 38.2319 14.1585C35.6249 12.6973 32.2424 11.5625 27.9652 10.7118C26.6301 10.4608 25.291 10.2316 23.9484 10.0243C21.5467 9.65599 19.1486 9.26487 16.7544 8.85099C15.9752 8.71349 14.811 8.51915 14.0392 8.35232C13.444 8.22585 12.8559 8.06797 12.2774 7.87932C11.786 7.68682 11.0949 7.49982 10.9464 6.93515V6.93515ZM12.6624 8.60165C12.6679 8.59799 12.7779 8.63282 12.9135 8.67865C13.1629 8.76299 13.4929 8.86199 13.8779 8.97015C14.1455 9.04349 14.4407 9.12415 14.756 9.20299C15.1557 9.30565 15.4875 9.39365 15.4912 9.39915C15.5352 9.44865 16.208 11.5955 16.4372 12.4187C16.5252 12.734 16.5912 12.9962 16.5857 13.0017C16.5218 12.9222 16.4665 12.8361 16.4207 12.745C15.6434 11.3773 14.4095 9.98582 12.985 8.86565C12.8743 8.78162 12.7667 8.69356 12.6624 8.60165V8.60165ZM15.944 9.50732C16.0646 9.51884 16.1842 9.53968 16.3015 9.56965C17.4364 9.81898 19.464 10.2113 20.7657 10.4313C20.9839 10.468 21.1617 10.5047 21.1617 10.5175C21.1086 10.5652 21.0479 10.6036 20.982 10.6312C20.7639 10.7412 19.8784 11.271 19.5832 11.469C18.909 11.9118 18.2769 12.4156 17.6949 12.9742C17.5775 13.0945 17.4571 13.2119 17.3337 13.3262C17.3022 13.2445 17.2771 13.1605 17.2585 13.075C16.9472 11.9583 16.5488 10.8678 16.0669 9.81349C16.0185 9.71488 15.975 9.61392 15.9367 9.51099C15.9367 9.50915 15.9367 9.50732 15.944 9.50732V9.50732ZM21.7135 10.6037C21.7502 10.6165 21.8235 10.842 21.95 11.3443C22.2422 12.5288 22.337 13.7534 22.2305 14.9688L22.2085 15.0385L21.8657 14.9285C20.9161 14.631 19.9614 14.3498 19.002 14.0852C18.6554 13.9964 18.3128 13.8924 17.9754 13.7735C17.9754 13.7332 18.7985 12.91 19.1524 12.5965C19.8289 11.9988 21.6494 10.5835 21.7135 10.6037V10.6037ZM22.1719 10.6697C22.192 10.6513 24.9292 11.1243 26.1722 11.3627C27.0999 11.5405 28.44 11.821 28.5207 11.8558C28.561 11.8705 28.4217 11.9475 27.9762 12.1492C26.2162 12.9412 24.9109 13.6525 23.6129 14.5197C23.2719 14.747 22.9877 14.934 22.9822 14.934C22.9749 14.934 22.9712 14.7433 22.9712 14.5123C22.9712 13.2473 22.7164 11.9695 22.2544 10.8897C22.2201 10.819 22.1925 10.7454 22.1719 10.6697ZM29.2485 12.0703C29.2687 12.0905 29.1789 12.6313 29.1019 12.9503C28.8599 13.9403 28.2182 15.4143 27.4262 16.7985C27.343 16.9546 27.25 17.1053 27.1475 17.2495C27.0081 17.1904 26.8738 17.1199 26.746 17.0387C25.9724 16.5858 25.096 16.1587 24.1335 15.7608C23.9613 15.6931 23.7913 15.6197 23.6239 15.5408C23.5799 15.5005 25.7194 14.0833 26.8542 13.4032C27.7617 12.8587 29.2229 12.0447 29.2485 12.0703V12.0703ZM29.7545 12.1492C29.815 12.1492 31.0287 12.4792 31.6557 12.668C33.2195 13.1355 35.0235 13.7937 36.1932 14.3253L36.679 14.5453L36.3362 14.6242C33.4744 15.2842 31.0195 16.0413 28.6582 17.0002C28.462 17.0808 28.2915 17.1468 28.2787 17.1468C28.312 17.0291 28.3581 16.9153 28.4162 16.8077C29.1275 15.2988 29.5859 13.7148 29.705 12.371C29.716 12.2482 29.738 12.1492 29.7545 12.1492V12.1492ZM17.6912 14.9212C17.7095 14.9028 18.6335 15.1192 19.1377 15.2603C19.8949 15.473 21.5064 16.012 21.5064 16.0542C21.5064 16.0615 21.3285 16.2173 21.1122 16.3988C20.1761 17.1859 19.2692 18.0072 18.3934 18.861C18.2122 19.0426 18.0238 19.2169 17.8287 19.3835C17.8159 19.3835 17.8104 19.3413 17.8177 19.2918C17.9699 18.1717 17.9369 16.7343 17.726 15.2713C17.7052 15.1563 17.693 15.0398 17.6894 14.923L17.6912 14.9212ZM37.1429 14.9395C37.1557 14.9542 36.7139 15.6453 36.4389 16.0395C36.0355 16.6152 35.4544 17.3705 34.127 19.0407L32.378 21.2443C32.2183 21.4515 32.0539 21.6551 31.8849 21.8548C31.8794 21.8548 31.7932 21.7338 31.696 21.5872C30.9467 20.4689 30.0389 19.4653 29.001 18.608C28.8385 18.4718 28.6734 18.3385 28.506 18.2083C28.4566 18.1751 28.4111 18.1364 28.3704 18.0928C28.3704 18.0745 29.5015 17.5905 30.365 17.2385C32.0379 16.5661 33.7369 15.9606 35.458 15.4235C36.2684 15.176 37.13 14.9285 37.1429 14.9395V14.9395ZM37.6525 15.0733C37.7861 15.1185 37.9136 15.1801 38.032 15.2567C39.6485 16.1828 41.1437 17.306 42.4834 18.6007C42.839 18.949 43.7062 19.8528 43.6934 19.8602L43.0279 19.9133C40.2229 20.1242 36.6369 20.72 33.1829 21.5505C32.9482 21.6055 32.7465 21.6532 32.7319 21.6532C32.719 21.6532 32.9757 21.3965 33.302 21.0812C35.3315 19.1323 36.2555 17.9022 37.3445 15.7022C37.5059 15.3758 37.6434 15.0917 37.6489 15.0752H37.6525V15.0733ZM22.8245 16.595C22.918 16.6133 23.7834 17.0167 24.436 17.343C25.0319 17.6418 25.9357 18.124 25.9815 18.1662C25.987 18.1717 25.6699 18.3367 25.2739 18.5347C24.0991 19.118 22.9503 19.7523 21.8309 20.4358C21.51 20.632 21.2442 20.7915 21.235 20.7915C21.2075 20.7915 21.2167 20.7677 21.3964 20.4413C22.0155 19.2866 22.4708 18.0513 22.7494 16.771C22.775 16.6573 22.8044 16.5877 22.8245 16.5932V16.595ZM21.9537 16.749C21.972 16.7673 21.7484 17.5923 21.6054 18.0323C21.218 19.1899 20.7047 20.3015 20.0745 21.347L19.9095 21.6165L19.5374 21.2553C19.1752 20.8862 18.757 20.5769 18.298 20.3387C18.1845 20.2873 18.0764 20.2247 17.9754 20.1517C17.9754 20.0967 19.112 19.0645 19.9884 18.322C20.6172 17.7903 21.939 16.7325 21.9537 16.749V16.749ZM27.2484 18.927L27.5729 19.1378C28.319 19.6218 29.2009 20.2727 29.8737 20.8318C30.2514 21.1472 30.9829 21.8035 31.1332 21.9612L31.2139 22.0473L30.6749 22.1977C27.9189 22.9493 25.1969 23.8204 22.5165 24.8083C22.323 24.8825 22.1274 24.951 21.9299 25.0137C21.8914 25.0137 21.8529 25.0485 22.5404 24.416C24.3004 22.7972 25.8532 21.0133 27.0137 19.279L27.2484 18.927ZM25.8569 19.2753C25.8734 19.2918 24.9549 20.577 24.4104 21.303C23.7577 22.1702 22.5954 23.6222 21.796 24.5663C21.5919 24.8152 21.3804 25.0579 21.1617 25.2942C21.1434 25.2997 21.1342 25.2025 21.1324 25.0503C21.1324 24.2437 20.927 23.382 20.5677 22.6523C20.4155 22.3443 20.3899 22.271 20.421 22.2417C20.5457 22.128 22.4872 21.0207 23.71 20.3662C24.5515 19.9152 25.8422 19.2588 25.8569 19.2753ZM17.4419 21.3378C17.9746 21.5931 18.4745 21.9119 18.9305 22.2875C18.9452 22.2967 18.771 22.4397 18.5455 22.6028C17.913 23.0593 16.9505 23.7835 16.395 24.2272C15.8084 24.6947 15.7882 24.7093 15.8542 24.6067C16.2942 23.9338 16.5142 23.5543 16.7452 23.0667C16.9524 22.634 17.1559 22.1207 17.3025 21.6733C17.3328 21.5551 17.3804 21.4421 17.4437 21.3378H17.4419ZM19.684 23.0978C19.7152 23.0923 19.7574 23.1492 19.9389 23.4187C20.3184 23.987 20.6099 24.7423 20.685 25.3583L20.6997 25.4922L19.7885 25.8442C18.3889 26.3821 17.0037 26.9568 15.6342 27.5675C15.35 27.6995 14.8495 27.9378 14.5214 28.1028C14.1932 28.2678 13.9255 28.3962 13.9255 28.3888C13.9255 28.3815 14.1309 28.2257 14.3839 28.0442C16.3767 26.5958 18.0964 25.0118 19.3925 23.426C19.53 23.2573 19.6565 23.1106 19.673 23.0996C19.6764 23.0977 19.6802 23.0965 19.684 23.096V23.0978ZM18.65 23.3545C18.6775 23.3802 17.9149 24.2418 17.4015 24.7662C16.1614 26.0405 14.7728 27.1613 13.2655 28.1047C13.0675 28.2312 12.8879 28.343 12.8622 28.3576C12.82 28.3833 12.8769 28.3173 13.5699 27.562C14.0062 27.0871 14.3399 26.693 14.7212 26.1998C14.897 25.9454 15.1228 25.7296 15.3849 25.5655C16.3694 24.8542 18.6244 23.327 18.65 23.3527V23.3545ZM20.4815 2.34265C20.3349 2.32432 17.968 3.17682 16.4482 3.79282C14.3894 4.63065 12.7889 5.43182 11.8025 6.12482C11.4359 6.38149 10.9739 6.84532 10.9079 7.02315C10.8819 7.09547 10.8688 7.17181 10.8694 7.24865L11.764 8.09199L13.887 8.77032L18.9452 9.67599L24.7257 10.6697L24.7844 10.1747L24.733 10.1655L23.9722 10.0445L23.8164 9.77315C23.0306 8.38696 22.3106 6.96455 21.6585 5.51065C21.2781 4.63687 20.9535 3.73978 20.6869 2.82482C20.5622 2.37932 20.5494 2.35182 20.4815 2.34265ZM20.3697 2.68365H20.3789C20.3844 2.68915 20.41 2.87615 20.4375 3.09615C20.5512 4.02749 20.7602 4.92949 21.0865 5.90115C21.3322 6.63449 21.3359 6.59232 21.0425 6.50982C20.3642 6.32099 17.3172 5.79849 15.1135 5.49232C14.8947 5.46441 14.6765 5.43201 14.459 5.39515C14.4315 5.36765 16.0485 4.52065 16.7654 4.18515C17.6839 3.75982 20.1882 2.71849 20.3697 2.68365V2.68365ZM13.9494 5.66832L14.2079 5.75632C15.6232 6.23665 19.1689 6.91499 21.1287 7.07632C21.3487 7.09465 21.5357 7.11482 21.5412 7.12032C21.5467 7.12582 21.3579 7.22665 21.1232 7.34399C20.179 7.81699 19.1377 8.39449 18.4172 8.84549C18.2064 8.97749 18.0139 9.08382 17.9864 9.08199C17.8822 9.06732 17.7783 9.05082 17.6747 9.03249L17.4107 8.99032L16.7415 8.33949C15.5664 7.20282 14.6497 6.32282 14.294 5.99282L13.9494 5.66832ZM13.6872 5.87732L14.624 7.04699C15.141 7.68865 15.658 8.32849 15.7717 8.46599C15.8872 8.60349 15.9752 8.71899 15.9697 8.72265C15.944 8.74282 14.613 8.48432 13.9072 8.32115C13.4105 8.21557 12.9192 8.08586 12.435 7.93249L12.0684 7.81515L12.0702 7.72532C12.0757 7.27615 12.6422 6.61249 13.6029 5.93599L13.6872 5.87732ZM21.6659 7.47049C21.6934 7.47232 21.7245 7.52915 21.807 7.71065C22.0344 8.20932 22.742 9.55865 22.9125 9.81899C22.9675 9.90515 23.0592 9.91065 22.1187 9.75849C19.8637 9.39549 19.1322 9.27265 19.1322 9.25799C19.1781 9.21813 19.2293 9.18482 19.2844 9.15899C20.0037 8.75535 20.6833 8.28452 21.3139 7.75282L21.6347 7.48332C21.6457 7.47415 21.6567 7.46865 21.6659 7.47049V7.47049ZM29.5657 22.8852L20.751 25.7598L13.0877 29.1442L10.9427 29.7125C9.80611 30.7871 8.62694 31.8158 7.40804 32.7962C6.77478 33.32 6.19003 33.8998 5.66087 34.5286C5.05221 35.2876 4.57554 36.0943 4.37021 36.7158C4.00354 37.8342 4.18137 38.9672 4.89271 40.0122C5.80021 41.3468 7.60604 42.7035 9.70521 43.6275C10.7777 44.0968 12.5835 44.7055 13.9402 45.0465C16.2007 45.6185 20.5659 46.2381 22.9712 46.3298C23.4589 46.3481 24.1079 46.3481 24.139 46.3261C24.1904 46.2913 24.5662 45.5836 25.0007 44.6945C26.4784 41.6768 27.5472 38.8462 28.1229 36.4298C28.4712 34.965 28.7425 33.0143 28.9185 30.7007C28.9727 29.5195 28.9825 28.3368 28.9479 27.155C28.9022 26.1064 28.7901 25.0617 28.6124 24.0273C28.5891 23.9376 28.5817 23.8446 28.5904 23.7523C28.616 23.734 28.6985 23.7065 29.782 23.3912L29.5657 22.8852ZM27.549 24.0677C27.6315 24.0677 27.8424 26.11 27.8992 27.4043C27.9102 27.6812 27.9084 27.8572 27.8919 27.8572C27.8405 27.8572 26.7644 27.2247 25.9999 26.7462C25.2784 26.2917 24.5681 25.8198 23.8695 25.3308C23.8054 25.2795 23.8127 25.2777 24.3572 25.0907C25.283 24.7717 27.4812 24.0677 27.5509 24.0677H27.549ZM23.061 25.5398C23.116 25.5398 23.2719 25.626 23.6385 25.8552C25.0135 26.7168 26.8762 27.7527 27.6719 28.101C27.9212 28.211 27.9487 28.167 27.3785 28.5538C26.1649 29.3788 24.6542 30.1892 22.8007 31.0142C22.6005 31.1057 22.3982 31.1925 22.1939 31.2745C22.2074 31.1499 22.2338 31.027 22.2727 30.9078C22.7219 29.2487 22.9749 27.5712 22.9822 26.2255C22.9859 25.5618 22.9859 25.5582 23.05 25.5417H23.061V25.5398ZM22.137 25.8937C22.1755 25.934 22.148 27.4227 22.1004 27.8297C21.9608 28.9755 21.704 30.104 21.334 31.1975C21.3084 31.2287 20.3972 30.3395 20.0947 29.9875C19.6157 29.4443 19.2039 28.8454 18.8682 28.2037C18.7179 27.9067 18.4759 27.3163 18.4979 27.2998C18.6005 27.2265 22.1114 25.8698 22.137 25.8937ZM17.7829 27.6096C17.7902 27.6096 17.7975 27.6115 17.8012 27.617C17.8419 27.6941 17.8762 27.7745 17.9039 27.8572C18.1867 28.5611 18.5575 29.2264 19.0075 29.8372C19.5505 30.556 20.1763 31.2083 20.872 31.7805C20.9142 31.8171 20.927 31.8098 19.8417 32.2205C18.4523 32.7444 17.0499 33.2334 15.636 33.6872C15.0365 33.8815 14.5287 34.0447 14.5085 34.0538C14.448 34.074 14.4664 34.0373 14.6424 33.7642C15.4252 32.5432 16.6095 30.1525 17.2732 28.4622C17.3869 28.1688 17.4969 27.8755 17.517 27.8095C17.5445 27.7142 17.5739 27.6812 17.6637 27.6408C17.7005 27.6215 17.7413 27.6108 17.7829 27.6096V27.6096ZM16.4482 28.1597C16.4665 28.1762 16.1292 28.8893 15.7955 29.5365C15.0882 30.9044 14.3218 32.241 13.4984 33.5423L13.1647 34.0703C13.1317 34.1198 13.117 34.1033 13.0144 33.898C12.7747 33.4088 12.602 32.8896 12.501 32.3543C12.4068 31.6948 12.4191 31.0244 12.5377 30.3688C12.6239 29.9526 12.6202 29.9618 12.8164 29.8628C13.6634 29.4283 16.4207 28.1358 16.4482 28.1597V28.1597ZM27.9395 28.6272V28.9095C27.9207 30.747 27.7644 32.5806 27.472 34.3948C26.2631 34.0459 25.0962 33.5651 23.9924 32.9612C23.3434 32.6055 22.4065 32.0317 22.434 32.0042C22.4395 31.9968 22.7164 31.852 23.0464 31.6797C24.3554 31.0013 25.6039 30.268 26.691 29.542C27.098 29.2707 27.7085 28.8288 27.8442 28.7097L27.9395 28.6272ZM11.4175 30.5943C11.445 30.5943 11.4377 30.6457 11.3955 30.8895C11.3592 31.1265 11.3341 31.3651 11.3204 31.6045C11.2654 32.5798 11.4249 33.2985 11.907 34.2811C12.0427 34.5561 12.149 34.7835 12.1435 34.7872C12.094 34.8293 7.68854 36.1181 6.30254 36.4976L5.50504 36.7177C5.45554 36.7323 5.45187 36.7213 5.46837 36.6077C5.62054 35.6305 6.36671 34.349 7.40804 33.271C8.10104 32.556 8.65471 32.1307 9.59887 31.5935C10.1989 31.2493 10.8052 30.9162 11.4175 30.5943V30.5943ZM21.8107 32.4551C21.8144 32.4515 21.9775 32.5376 22.1719 32.6513C23.5964 33.4745 25.5819 34.2463 27.274 34.6332L27.428 34.6698L27.2172 34.7853C26.3335 35.2766 23.4204 36.4885 20.4449 37.6031C20.1309 37.7205 19.8174 37.839 19.5044 37.9588C19.4568 37.9822 19.4062 37.9988 19.354 38.0083C19.354 38.001 19.4769 37.7663 19.6272 37.484C20.4632 35.922 21.2955 34.0245 21.7245 32.7081C21.7667 32.5743 21.8052 32.4606 21.8107 32.4551V32.4551ZM20.751 32.8035C20.7193 32.9092 20.6807 33.0126 20.6355 33.1133C19.9592 34.7106 19.1872 36.2656 18.3237 37.77C18.1771 38.0388 18.023 38.3035 17.8617 38.5638C17.8525 38.5638 17.6527 38.4428 17.4144 38.298C16.0027 37.4326 14.7524 36.3693 13.931 35.3335L13.8137 35.1868L14.4224 35.02C16.4176 34.4863 18.372 33.8105 20.2707 32.9978C20.531 32.8878 20.7474 32.798 20.751 32.8035V32.8035ZM27.3327 35.1007C27.3345 35.1007 27.3364 35.1025 27.3364 35.1062C27.3364 35.2528 27.0009 36.6241 26.7204 37.6178C26.4857 38.4483 26.2877 39.0991 25.9229 40.2523C25.8298 40.5634 25.7271 40.8716 25.6149 41.1763C23.733 40.8546 21.8897 40.3379 20.1149 39.6345C19.717 39.4788 19.3261 39.3057 18.9434 39.1157C18.9324 39.1028 19.3339 38.914 19.8344 38.694C22.8685 37.3721 26.0109 35.8651 27.0852 35.218C27.1603 35.1648 27.244 35.1251 27.3327 35.1007V35.1007ZM12.1399 35.6195C12.1564 35.636 11.3075 36.8496 10.1232 38.5088L9.04704 40.0176C8.86921 40.2725 8.59787 40.674 8.44387 40.9123L8.16337 41.345L7.86637 41.0938C7.42172 40.7036 7.00685 40.2808 6.62521 39.8288C6.05321 39.1157 5.66637 38.3658 5.51237 37.6765C5.44271 37.3575 5.43904 37.1962 5.50687 37.176C6.68719 36.8913 7.86909 36.6132 9.05254 36.3418L11.4359 35.7826C11.819 35.691 12.1362 35.6176 12.1399 35.6195V35.6195ZM12.9924 35.9458L13.2069 36.186C14.1027 37.2031 15.1593 38.0664 16.3345 38.7417C16.4627 38.8053 16.5827 38.8841 16.692 38.9763C14.0536 39.9329 11.4074 40.8679 8.75371 41.7813C8.70826 41.7542 8.6642 41.7249 8.62171 41.6933L8.49887 41.6053L8.69137 41.3266C9.31471 40.4228 10.0994 39.4291 11.8172 37.363L12.9924 35.9458ZM18.309 39.7463C18.3145 39.7408 18.6115 39.8453 18.9727 39.981C19.8399 40.3055 20.52 40.5163 21.4422 40.7473C22.5734 41.0315 24.2105 41.3157 25.1785 41.3963C25.3252 41.4073 25.4022 41.4257 25.3802 41.4403C25.3344 41.4697 24.3535 41.796 23.633 42.0233C20.8078 42.8827 17.9745 43.7157 15.1337 44.5221C15.0695 44.535 14.8459 44.4763 14.8459 44.4488C14.8459 44.4323 15.0054 44.2307 15.1997 43.9978C16.1691 42.837 17.0725 41.6226 17.9057 40.3605C18.0394 40.1553 18.1739 39.9506 18.309 39.7463V39.7463ZM17.132 39.7793C17.1412 39.7885 16.6682 40.5457 15.8377 41.8547C15.4857 42.4065 15.0879 43.0371 14.9522 43.2516C14.8147 43.468 14.6149 43.798 14.5085 43.985L14.3124 44.3242L14.2134 44.2985C13.975 44.2343 12.2902 43.6385 11.8465 43.4625C11.317 43.2531 10.7992 43.0151 10.2955 42.7493C9.76571 42.4633 9.09471 42.038 9.14604 42.0215L11.1719 41.4678C14.0905 40.6721 15.7057 40.2156 16.7635 39.8838C16.9634 39.8233 17.1284 39.7757 17.1302 39.7793H17.132ZM25.4242 41.7245H25.4352C25.4627 41.7942 24.381 44.7862 23.9869 45.7358C23.897 45.9485 23.8659 46.0017 23.8182 45.998C22.9409 45.8872 22.0651 45.7649 21.191 45.6313C19.53 45.3783 16.7489 44.8925 16.0467 44.733L15.8835 44.6963L16.879 44.4726C19.013 43.9923 20.0379 43.7338 21.0774 43.4148C22.4173 43.0025 23.727 42.4977 24.997 41.9042C25.136 41.8365 25.2786 41.7765 25.4242 41.7245V41.7245Z" fill="black"/>
</g>
<defs>
<clipPath id="clip0">
<rect width="44" height="44" fill="white" transform="translate(2.28571 2.34265)"/>
</clipPath>
</defs>
</svg>
