<svg width="48" height="48" viewBox="0 0 48 48" fill="none" xmlns="http://www.w3.org/2000/svg">
<path d="M13.5 20.55C14.9 14.95 18.4 12.15 24 12.15C32.4 12.15 33.45 18.45 37.65 19.5C40.45 20.2 42.9 19.15 45 16.35C43.6 21.95 40.1 24.75 34.5 24.75C26.1 24.75 25.05 18.45 20.85 17.4C18.05 16.7 15.6 17.75 13.5 20.55ZM3 33.15C4.4 27.55 7.9 24.75 13.5 24.75C21.9 24.75 22.95 31.05 27.15 32.1C29.95 32.8 32.4 31.75 34.5 28.95C33.1 34.55 29.6 37.35 24 37.35C15.6 37.35 14.55 31.05 10.35 30C7.55 29.3 5.1 30.35 3 33.15Z" fill="#44A8B3"/>
</svg>
