<svg width="49" height="48" viewBox="0 0 49 48" fill="none" xmlns="http://www.w3.org/2000/svg">
<g clip-path="url(#clip0)">
<path d="M3.42856 24V45H45.4286V3H3.42856V24Z" fill="#007ACC"/>
<path d="M12.7163 24.1395L12.703 25.8593H18.1696V41.3928H22.0365V25.8593H27.5031V24.1728C27.5031 23.2392 27.4831 22.4593 27.4565 22.4393C27.4365 22.4127 24.1098 22.3992 20.0765 22.406L12.7365 22.426L12.7165 24.1393L12.7163 24.1395Z" fill="white"/>
<path d="M37.3185 22.3771C38.385 22.6439 39.1984 23.117 39.9451 23.8904C40.3318 24.3038 40.905 25.0572 40.9518 25.2372C40.9649 25.2905 39.1384 26.5172 38.0318 27.2038C37.9918 27.2306 37.8316 27.0571 37.6517 26.7904C37.1117 26.0039 36.5451 25.6638 35.6783 25.6039C34.4052 25.5171 33.585 26.1838 33.5918 27.297C33.5918 27.6238 33.6384 27.8171 33.7718 28.0838C34.0518 28.6638 34.5717 29.0105 36.2051 29.7171C39.2117 31.0106 40.4983 31.8638 41.2984 33.0771C42.1918 34.4306 42.3918 36.5905 41.7851 38.1972C41.1185 39.9438 39.4652 41.1306 37.1383 41.5238C36.4184 41.6505 34.7118 41.6305 33.9384 41.4905C32.2519 41.1905 30.6518 40.3572 29.6651 39.2639C29.2784 38.8372 28.525 37.7238 28.5718 37.6438C28.5918 37.6172 28.7651 37.5105 28.9583 37.3972C29.145 37.2905 29.8518 36.8837 30.5184 36.4971L31.7251 35.7971L31.9784 36.1705C32.3318 36.7104 33.105 37.4505 33.5718 37.6971C34.9117 38.4039 36.7518 38.3038 37.6584 37.4904C38.0451 37.1371 38.205 36.7705 38.205 36.2304C38.205 35.7438 38.145 35.5305 37.8917 35.164C37.5652 34.6972 36.8985 34.3038 35.005 33.484C32.8384 32.5505 31.905 31.9705 31.0518 31.0504C30.5584 30.5172 30.0917 29.6638 29.8984 28.9504C29.7384 28.3572 29.6982 26.8704 29.8251 26.2705C30.2718 24.177 31.8517 22.7172 34.1317 22.2837C34.8716 22.1438 36.5917 22.1971 37.3185 22.3773V22.3771Z" fill="white"/>
</g>
<defs>
<clipPath id="clip0">
<rect width="42" height="42" fill="white" transform="translate(3.42856 3)"/>
</clipPath>
</defs>
</svg>
