<svg width="48" height="48" viewBox="0 0 48 48" fill="none" xmlns="http://www.w3.org/2000/svg">
<path fill-rule="evenodd" clip-rule="evenodd" d="M17.7262 3C13.444 3 9.99999 6.59275 9.99999 10.994C9.99999 13.6697 11.274 16.0463 13.2322 17.497C12.223 18.2532 11.4049 19.2352 10.8436 20.3645C10.2823 21.4938 9.99337 22.7389 9.99999 24C9.99999 26.6775 11.274 29.0522 13.2322 30.503C12.223 31.2591 11.4049 32.2412 10.8436 33.3705C10.2823 34.4998 9.99337 35.7449 9.99999 37.006C9.99999 41.4072 13.444 45 17.7262 45C22.0067 45 25.4525 41.4072 25.4525 37.006V30.2475C26.8058 31.3759 28.5117 31.9945 30.2737 31.9958C34.556 31.994 38 28.4013 38 24C38 21.3225 36.7277 18.9478 34.7677 17.497C35.777 16.7409 36.5951 15.7588 37.1564 14.6295C37.7177 13.5002 38.0066 12.2551 38 10.994C38 6.59275 34.556 3 30.2737 3H17.7262V3ZM12.9032 10.994C12.9032 8.20975 15.0767 5.98025 17.7262 5.98025H22.5475V16.0078H17.7262C15.0767 16.0078 12.9032 13.7765 12.9032 10.994V10.994ZM30.2737 16.006H25.4525V5.9785H30.2737C32.925 5.9785 35.0967 8.20975 35.0967 10.994C35.0967 13.7765 32.925 16.006 30.2737 16.006ZM12.905 24C12.905 21.2175 15.0785 18.9863 17.728 18.9863H22.5492V29.0137H17.7262C15.075 29.0137 12.9032 26.7825 12.9032 24H12.905ZM25.4525 24C25.4525 21.2175 27.626 18.9863 30.2755 18.9863C32.9267 18.9863 35.0985 21.2158 35.0985 24C35.0985 26.7825 32.9267 29.0137 30.2755 29.0137C27.626 29.0137 25.4542 26.7842 25.4542 24H25.4525ZM12.905 37.006C12.905 34.2235 15.0785 31.994 17.728 31.994H22.5492V37.006C22.5492 39.7902 20.3792 42.0198 17.728 42.0198C15.0785 42.0198 12.905 39.7902 12.905 37.006Z" fill="#212426"/>
</svg>
