<svg width="48" height="48" viewBox="0 0 48 48" fill="none" xmlns="http://www.w3.org/2000/svg">
<path d="M42.514 21.924C43.462 23.164 43.462 24.838 42.514 26.076C39.528 29.974 32.364 38 24 38C15.636 38 8.47202 29.974 5.48602 26.076C5.02479 25.4823 4.77441 24.7518 4.77441 24C4.77441 23.2482 5.02479 22.5177 5.48602 21.924C8.47202 18.026 15.636 10 24 10C32.364 10 39.528 18.026 42.514 21.924V21.924Z" stroke="#212426" stroke-width="4" stroke-linecap="round" stroke-linejoin="round"/>
<path d="M24 30C27.3137 30 30 27.3137 30 24C30 20.6863 27.3137 18 24 18C20.6863 18 18 20.6863 18 24C18 27.3137 20.6863 30 24 30Z" stroke="#212426" stroke-width="4" stroke-linecap="round" stroke-linejoin="round"/>
</svg>
