<svg width="48" height="48" viewBox="0 0 48 48" fill="none" xmlns="http://www.w3.org/2000/svg">
<path d="M14.75 33.562L17.25 30.438L9.20202 24L17.25 17.562L14.75 14.438L4.75002 22.438C4.51571 22.6253 4.32656 22.863 4.19657 23.1334C4.06658 23.4038 3.99908 23.7 3.99908 24C3.99908 24.3 4.06658 24.5961 4.19657 24.8665C4.32656 25.1369 4.51571 25.3746 4.75002 25.562L14.75 33.562ZM33.25 14.438L30.75 17.562L38.798 24L30.75 30.438L33.25 33.562L43.25 25.562C43.4843 25.3746 43.6735 25.1369 43.8035 24.8665C43.9335 24.5961 44.001 24.3 44.001 24C44.001 23.7 43.9335 23.4038 43.8035 23.1334C43.6735 22.863 43.4843 22.6253 43.25 22.438L33.25 14.438ZM29.952 6.43196L21.952 42.432L18.046 41.564L26.046 5.56396L29.952 6.43196Z" fill="#212426"/>
</svg>
