<svg width="24" height="24" viewBox="0 0 24 24" fill="none" xmlns="http://www.w3.org/2000/svg">
<path d="M13.1756 11.9819L19.8076 5.36761C19.9387 5.21497 20.0072 5.01864 19.9994 4.81784C19.9916 4.61704 19.9082 4.42655 19.7657 4.28446C19.6232 4.14237 19.4322 4.05912 19.2309 4.05137C19.0295 4.04361 18.8327 4.11191 18.6796 4.24262L12.0476 10.8569L5.41563 4.23464C5.26499 4.0844 5.06068 4 4.84763 4C4.63459 4 4.43028 4.0844 4.27963 4.23464C4.12899 4.38488 4.04436 4.58865 4.04436 4.80112C4.04436 5.0136 4.12899 5.21737 4.27963 5.36761L10.9196 11.9819L4.27963 18.5961C4.19589 18.6677 4.12787 18.7557 4.07985 18.8547C4.03184 18.9536 4.00485 19.0615 4.0006 19.1713C3.99634 19.2812 4.0149 19.3908 4.05512 19.4932C4.09534 19.5956 4.15635 19.6886 4.23431 19.7663C4.31228 19.8441 4.40552 19.9049 4.50818 19.945C4.61084 19.9851 4.7207 20.0036 4.83088 19.9994C4.94105 19.9952 5.04916 19.9682 5.14841 19.9204C5.24766 19.8725 5.33592 19.8046 5.40763 19.7211L12.0476 13.1069L18.6796 19.7211C18.8327 19.8518 19.0295 19.9201 19.2309 19.9124C19.4322 19.9046 19.6232 19.8214 19.7657 19.6793C19.9082 19.5372 19.9916 19.3467 19.9994 19.1459C20.0072 18.9451 19.9387 18.7488 19.8076 18.5961L13.1756 11.9819Z" fill="#EEEEEE"/>
</svg>
