<svg width="28" height="14" viewBox="0 0 28 14" fill="none" xmlns="http://www.w3.org/2000/svg">
<g clip-path="url(#clip0)" filter="url(#filter0_d)">
<path d="M12.7025 12.5074L4.43009 2.98115C3.45383 1.86031 4.24726 0.0999762 5.72891 0.0999762H22.2737C22.6053 0.0996898 22.9299 0.195704 23.2087 0.376521C23.4876 0.557339 23.7087 0.815294 23.8458 1.1195C23.9828 1.4237 24.0299 1.76125 23.9815 2.09173C23.933 2.42222 23.791 2.73162 23.5725 2.98289L15.3001 12.5057C15.1382 12.6924 14.9385 12.8419 14.7145 12.9444C14.4905 13.0469 14.2473 13.1 14.0013 13.1C13.7553 13.1 13.5121 13.0469 13.288 12.9444C13.064 12.8419 12.8644 12.6924 12.7025 12.5057V12.5074Z" fill="#4E6172"/>
</g>
<defs>
<filter id="filter0_d" x="0" y="0.0999756" width="28" height="21" filterUnits="userSpaceOnUse" color-interpolation-filters="sRGB">
<feFlood flood-opacity="0" result="BackgroundImageFix"/>
<feColorMatrix in="SourceAlpha" type="matrix" values="0 0 0 0 0 0 0 0 0 0 0 0 0 0 0 0 0 0 127 0" result="hardAlpha"/>
<feOffset dy="4"/>
<feGaussianBlur stdDeviation="2"/>
<feColorMatrix type="matrix" values="0 0 0 0 0 0 0 0 0 0 0 0 0 0 0 0 0 0 0.25 0"/>
<feBlend mode="normal" in2="BackgroundImageFix" result="effect1_dropShadow"/>
<feBlend mode="normal" in="SourceGraphic" in2="effect1_dropShadow" result="shape"/>
</filter>
<clipPath id="clip0">
<rect width="20" height="13" fill="white" transform="translate(4 0.0999756)"/>
</clipPath>
</defs>
</svg>
