<svg width="20" height="14" viewBox="0 0 20 14" fill="none" xmlns="http://www.w3.org/2000/svg">
<path d="M8.70248 12.5074L0.430093 2.98115C-0.546172 1.86031 0.247259 0.0999762 1.72891 0.0999762H18.2737C18.6053 0.0996898 18.9299 0.195704 19.2087 0.376521C19.4876 0.557339 19.7087 0.815294 19.8458 1.1195C19.9828 1.4237 20.0299 1.76125 19.9815 2.09173C19.933 2.42222 19.791 2.73162 19.5725 2.98289L11.3001 12.5057C11.1382 12.6924 10.9385 12.8419 10.7145 12.9444C10.4905 13.0469 10.2473 13.1 10.0013 13.1C9.75525 13.1 9.51206 13.0469 9.28805 12.9444C9.06403 12.8419 8.86437 12.6924 8.70248 12.5057V12.5074Z" fill="#4E6172"/>
</svg>
