<svg width="17" height="22" viewBox="0 0 17 22" fill="none" xmlns="http://www.w3.org/2000/svg">
<g clip-path="url(#clip0)">
<g filter="url(#filter0_d)">
<path d="M12.0605 13.625C12.0605 14.0938 11.9206 14.5755 11.6406 15.0703C11.3672 15.5651 10.9277 16.0273 10.3223 16.457C10.1335 16.5872 9.90234 16.7305 9.62891 16.8867C9.36198 17.0365 9.06901 17.1895 8.75 17.3457C8.4375 17.502 8.10547 17.6549 7.75391 17.8047C7.40885 17.9479 7.05729 18.0749 6.69922 18.1855C6.34766 18.2962 6.0026 18.3841 5.66406 18.4492C5.32552 18.5208 5.00651 18.5566 4.70703 18.5566C4.55729 18.5566 4.42708 18.5436 4.31641 18.5176C4.21224 18.498 4.11458 18.459 4.02344 18.4004C3.93229 18.3418 3.8444 18.2604 3.75977 18.1562C3.67513 18.0521 3.58398 17.9219 3.48633 17.7656C3.33008 17.8828 3.16406 17.9674 2.98828 18.0195C2.81901 18.0781 2.64648 18.1074 2.4707 18.1074H2.19727C2.14518 18.1074 2.09635 18.0879 2.05078 18.0488C2.00521 18.0163 1.96289 17.974 1.92383 17.9219C1.89128 17.8698 1.86523 17.8145 1.8457 17.7559C1.82617 17.6908 1.81641 17.6289 1.81641 17.5703C1.81641 17.2383 1.86198 16.9225 1.95312 16.623C2.05078 16.3171 2.16146 16.0143 2.28516 15.7148C2.46745 15.1615 2.65299 14.582 2.8418 13.9766C3.0306 13.3646 3.21289 12.7526 3.38867 12.1406C3.56445 11.5286 3.73047 10.9264 3.88672 10.334C4.04948 9.73503 4.19922 9.16862 4.33594 8.63477L4.60938 7.50195C4.60938 7.48242 4.60612 7.42708 4.59961 7.33594C4.5931 7.24479 4.58333 7.14714 4.57031 7.04297C4.5638 6.93229 4.55729 6.83138 4.55078 6.74023L4.54102 6.61328L4.58984 6.44727L4.58008 6.45703C4.61263 6.33984 4.6582 6.20638 4.7168 6.05664C4.77539 5.9069 4.84701 5.76693 4.93164 5.63672C5.01628 5.50651 5.10742 5.39909 5.20508 5.31445C5.30924 5.22331 5.41992 5.17773 5.53711 5.17773C5.64779 5.17773 5.78776 5.1875 5.95703 5.20703C6.13281 5.22005 6.28906 5.22656 6.42578 5.22656C6.49089 5.22656 6.55273 5.22331 6.61133 5.2168C6.67643 5.21029 6.75456 5.19401 6.8457 5.16797C6.94336 5.14193 7.06706 5.10612 7.2168 5.06055C7.37305 5.00846 7.57487 4.9401 7.82227 4.85547C8.19336 4.72526 8.5319 4.61784 8.83789 4.5332C9.15039 4.44206 9.44336 4.37044 9.7168 4.31836C9.99674 4.25977 10.2669 4.21745 10.5273 4.19141C10.7878 4.16536 11.0547 4.15234 11.3281 4.15234C11.6732 4.15234 12.0052 4.1849 12.3242 4.25C12.6497 4.3151 12.9362 4.42253 13.1836 4.57227C13.4375 4.71549 13.6393 4.90755 13.7891 5.14844C13.9388 5.38281 14.0137 5.66927 14.0137 6.00781C14.0137 6.58724 13.8607 7.10807 13.5547 7.57031C13.2487 8.03255 12.8158 8.46224 12.2559 8.85938C11.696 9.25651 11.0221 9.6276 10.2344 9.97266C9.45312 10.3112 8.58073 10.6465 7.61719 10.9785C8.38542 11.0957 9.04622 11.2357 9.59961 11.3984C10.1595 11.5547 10.6217 11.7402 10.9863 11.9551C11.3509 12.1699 11.6211 12.4141 11.7969 12.6875C11.9727 12.9609 12.0605 13.2734 12.0605 13.625ZM8.74023 12.7266C8.67513 12.7135 8.55469 12.6908 8.37891 12.6582C8.20964 12.6257 8.00781 12.5898 7.77344 12.5508C7.54557 12.5117 7.29818 12.4727 7.03125 12.4336C6.76432 12.388 6.51042 12.3457 6.26953 12.3066C6.02865 12.2611 5.80729 12.2188 5.60547 12.1797C5.41016 12.1406 5.26693 12.1081 5.17578 12.082C4.92839 12.8828 4.71029 13.651 4.52148 14.3867C4.33919 15.1159 4.15365 15.8516 3.96484 16.5938L4.60938 16.6621C4.75911 16.6751 4.88932 16.6882 5 16.7012C5.11719 16.7077 5.18555 16.7109 5.20508 16.7109C5.46549 16.6849 5.75195 16.6361 6.06445 16.5645C6.37695 16.4863 6.69922 16.3919 7.03125 16.2812C7.36979 16.1641 7.71159 16.0306 8.05664 15.8809C8.40169 15.7246 8.74023 15.5586 9.07227 15.3828C9.19596 15.3047 9.32617 15.2103 9.46289 15.0996C9.59961 14.9889 9.72331 14.8685 9.83398 14.7383C9.94466 14.6016 10.0358 14.4583 10.1074 14.3086C10.179 14.1589 10.2148 14.0059 10.2148 13.8496C10.2148 13.5892 10.0781 13.3646 9.80469 13.1758C9.53125 12.9805 9.17643 12.8307 8.74023 12.7266ZM5.6543 10.4609C6.01888 10.3438 6.40299 10.207 6.80664 10.0508C7.21029 9.88802 7.6237 9.71224 8.04688 9.52344C8.47656 9.33464 8.90951 9.13607 9.3457 8.92773C9.78841 8.71289 10.2279 8.49805 10.6641 8.2832H10.6543C10.8105 8.19857 10.9635 8.09766 11.1133 7.98047C11.2695 7.85677 11.4062 7.72656 11.5234 7.58984C11.6471 7.44661 11.7448 7.30013 11.8164 7.15039C11.8945 6.99414 11.9336 6.84115 11.9336 6.69141C11.9336 6.59375 11.9108 6.49609 11.8652 6.39844C11.8197 6.30078 11.748 6.21289 11.6504 6.13477C11.5527 6.05664 11.4225 5.99479 11.2598 5.94922C11.1035 5.90365 10.9082 5.88086 10.6738 5.88086C10.3483 5.88086 9.98047 5.92318 9.57031 6.00781C9.16016 6.08594 8.76302 6.18685 8.37891 6.31055C7.99479 6.43424 7.65299 6.57096 7.35352 6.7207C7.05404 6.87044 6.85547 7.01367 6.75781 7.15039C6.73828 7.18294 6.70898 7.25456 6.66992 7.36523C6.63737 7.47591 6.59831 7.59961 6.55273 7.73633C6.50716 7.86654 6.45833 7.99349 6.40625 8.11719C6.36068 8.24089 6.3151 8.33203 6.26953 8.39062C6.25651 8.45573 6.23047 8.55664 6.19141 8.69336C6.15234 8.82357 6.10352 8.97982 6.04492 9.16211C5.99284 9.3444 5.93099 9.54622 5.85938 9.76758C5.79427 9.98893 5.72591 10.2201 5.6543 10.4609Z" fill="#EEEEEE"/>
</g>
</g>
<defs>
<filter id="filter0_d" x="-2.18359" y="4.15234" width="20.1973" height="22.4043" filterUnits="userSpaceOnUse" color-interpolation-filters="sRGB">
<feFlood flood-opacity="0" result="BackgroundImageFix"/>
<feColorMatrix in="SourceAlpha" type="matrix" values="0 0 0 0 0 0 0 0 0 0 0 0 0 0 0 0 0 0 127 0" result="hardAlpha"/>
<feOffset dy="4"/>
<feGaussianBlur stdDeviation="2"/>
<feColorMatrix type="matrix" values="0 0 0 0 0 0 0 0 0 0 0 0 0 0 0 0 0 0 0.25 0"/>
<feBlend mode="normal" in2="BackgroundImageFix" result="effect1_dropShadow"/>
<feBlend mode="normal" in="SourceGraphic" in2="effect1_dropShadow" result="shape"/>
</filter>
<clipPath id="clip0">
<rect width="17" height="21" fill="white" transform="translate(0 0.5)"/>
</clipPath>
</defs>
</svg>
