<svg width="28" height="21" viewBox="0 0 28 21" fill="none" xmlns="http://www.w3.org/2000/svg">
<g clip-path="url(#clip0)" filter="url(#filter0_d)">
<path d="M15.2975 0.592534L23.5699 10.1188C24.5462 11.2397 23.7527 13 22.2711 13L5.72633 13C5.39474 13.0003 5.07009 12.9043 4.79127 12.7235C4.51245 12.5426 4.29127 12.2847 4.15422 11.9805C4.01717 11.6763 3.97006 11.3387 4.01853 11.0082C4.067 10.6778 4.209 10.3684 4.42752 10.1171L12.6999 0.594273C12.8618 0.407622 13.0615 0.258027 13.2855 0.155528C13.5095 0.05303 13.7527 0 13.9987 0C14.2447 0 14.4879 0.05303 14.712 0.155528C14.936 0.258027 15.1356 0.407622 15.2975 0.594273V0.592534Z" fill="#4E6172"/>
</g>
<defs>
<filter id="filter0_d" x="0" y="0" width="28" height="21" filterUnits="userSpaceOnUse" color-interpolation-filters="sRGB">
<feFlood flood-opacity="0" result="BackgroundImageFix"/>
<feColorMatrix in="SourceAlpha" type="matrix" values="0 0 0 0 0 0 0 0 0 0 0 0 0 0 0 0 0 0 127 0" result="hardAlpha"/>
<feOffset dy="4"/>
<feGaussianBlur stdDeviation="2"/>
<feColorMatrix type="matrix" values="0 0 0 0 0 0 0 0 0 0 0 0 0 0 0 0 0 0 0.25 0"/>
<feBlend mode="normal" in2="BackgroundImageFix" result="effect1_dropShadow"/>
<feBlend mode="normal" in="SourceGraphic" in2="effect1_dropShadow" result="shape"/>
</filter>
<clipPath id="clip0">
<rect width="20" height="13" fill="white" transform="translate(24 13) rotate(-180)"/>
</clipPath>
</defs>
</svg>
