<svg width="16" height="16" viewBox="0 0 16 16" fill="none" xmlns="http://www.w3.org/2000/svg">
<path d="M8 0.5C6.51664 0.5 5.06659 0.939867 3.83322 1.76398C2.59985 2.58809 1.63856 3.75943 1.0709 5.12987C0.503246 6.50032 0.354721 8.00832 0.64411 9.46318C0.933499 10.918 1.6478 12.2544 2.6967 13.3033C3.74559 14.3522 5.08197 15.0665 6.53682 15.3559C7.99168 15.6453 9.49968 15.4968 10.8701 14.9291C12.2406 14.3614 13.4119 13.4001 14.236 12.1668C15.0601 10.9334 15.5 9.48336 15.5 8C15.5 7.61667 15.4667 7.23333 15.4167 6.86667C15.0003 7.45055 14.4501 7.92622 13.8122 8.25388C13.1743 8.58153 12.4671 8.75165 11.75 8.75C10.796 8.75002 9.86666 8.44703 9.096 7.88472C8.32534 7.3224 7.7532 6.52984 7.46211 5.62134C7.17102 4.71284 7.17602 3.73536 7.47639 2.82988C7.77675 1.9244 8.35696 1.13773 9.13333 0.583333C8.76667 0.533333 8.38333 0.5 8 0.5Z" fill="#4E6172"/>
</svg>
