<svg width="20" height="20" viewBox="0 0 20 20" fill="none" xmlns="http://www.w3.org/2000/svg">
<path d="M10 2.5C8.51664 2.5 7.06659 2.93987 5.83322 3.76398C4.59985 4.58809 3.63856 5.75943 3.0709 7.12987C2.50325 8.50032 2.35472 10.0083 2.64411 11.4632C2.9335 12.918 3.6478 14.2544 4.6967 15.3033C5.74559 16.3522 7.08197 17.0665 8.53682 17.3559C9.99168 17.6453 11.4997 17.4968 12.8701 16.9291C14.2406 16.3614 15.4119 15.4001 16.236 14.1668C17.0601 12.9334 17.5 11.4834 17.5 10C17.5 9.61667 17.4667 9.23333 17.4167 8.86667C17.0003 9.45055 16.4501 9.92622 15.8122 10.2539C15.1743 10.5815 14.4671 10.7517 13.75 10.75C12.796 10.75 11.8667 10.447 11.096 9.88472C10.3253 9.3224 9.7532 8.52984 9.46211 7.62134C9.17102 6.71284 9.17602 5.73536 9.47639 4.82988C9.77675 3.9244 10.357 3.13773 11.1333 2.58333C10.7667 2.53333 10.3833 2.5 10 2.5Z" fill="#4E6172"/>
</svg>
