<svg width="21" height="15" viewBox="0 0 21 15" fill="none" xmlns="http://www.w3.org/2000/svg">
<g clip-path="url(#clip0)">
<path d="M8.625 2.54999V3.60624H20.4891C20.4725 3.26561 20.4369 2.83499 20.3094 2.54999" fill="#EC1C24"/>
<path d="M19.75 1.49374H8.625V2.54999H20.3094C20.1825 2.15593 19.9938 1.79656 19.75 1.49374Z" fill="#E6E7E8"/>
<path d="M17.375 0.4375H8.625V1.49375H19.75C19.2284 0.840625 18.37 0.4375 17.375 0.4375Z" fill="#EC1C24"/>
<path d="M20.4891 3.60626H8.625V4.66251H20.5V3.95845C20.5 3.89564 20.4959 3.83439 20.4941 3.77282C20.4928 3.75595 20.4909 3.71251 20.4891 3.60626Z" fill="#E6E7E8"/>
<path d="M8.625 5.71876H20.5V4.66251H8.625V5.71876Z" fill="#EC1C24"/>
<path d="M8.625 6.775H20.5V5.71875H8.625V6.775Z" fill="#E6E7E8"/>
<path d="M8.625 6.77499H20.5V7.83124H8.625V6.77499Z" fill="#EC1C24"/>
<path d="M0.5 7.83124V8.88749H20.5V7.83124H8.625H0.5Z" fill="#E6E7E8"/>
<path d="M0.5 8.88751H20.5V9.94376H0.5V8.88751Z" fill="#EC1C24"/>
<path d="M0.501562 10.5934C0.501562 10.5934 0.49875 10.8494 0.50625 11H20.4937C20.5025 10.8456 20.4984 10.5934 20.4984 10.5934L20.5 9.94376H0.5L0.501562 10.5934Z" fill="#E6E7E8"/>
<path d="M3.62501 14.1875H17.375C18.3728 14.1875 19.2022 13.825 19.7688 13.1125H1.22814C1.81314 13.8406 2.65814 14.1875 3.62345 14.1875" fill="#EC1C24"/>
<path d="M1.2297 13.1125H19.7703C20.0175 12.7984 20.2021 12.4399 20.3141 12.0562H0.689075C0.803168 12.4387 0.986986 12.7968 1.23126 13.1125" fill="#E6E7E8"/>
<path d="M0.68125 12.2229H20.3062C20.4086 11.8793 20.4694 11.5247 20.4875 11.1667H0.5C0.530938 11.5279 0.559688 11.8007 0.68125 12.2229Z" fill="#EC1C24"/>
<path d="M8.625 0.4375H3.625C1.55406 0.4375 0.5 1.97656 0.5 3.875V7.83125H8.625V0.4375Z" fill="#176496"/>
<path d="M1.37437 2.30499L1.54437 2.17436L1.71406 2.30499L1.64812 2.09499L1.81719 1.96655H1.60844L1.54375 1.75562L1.47937 1.96655H1.27094L1.44062 2.09499L1.37437 2.30499Z" fill="white"/>
<path d="M2.49753 2.30499L2.66753 2.17436L2.83722 2.30499L2.77159 2.09499L2.94034 1.96655H2.7319L2.66722 1.75562L2.60284 1.96655H2.39378L2.56347 2.09499L2.49753 2.30499Z" fill="white"/>
<path d="M3.73658 2.30499L3.90627 2.17436L4.07627 2.30499L4.01033 2.09499L4.17908 1.96655H3.97189L3.90627 1.75562L3.84158 1.96655H3.63439L3.8022 2.09499L3.73658 2.30499Z" fill="white"/>
<path d="M4.96658 2.30499L5.13627 2.17436L5.30627 2.30499L5.24064 2.09499L5.40939 1.96655H5.20002L5.13627 1.75562L5.07189 1.96655H4.86314L5.03252 2.09499L4.96658 2.30499Z" fill="white"/>
<path d="M6.20095 2.30499L6.37095 2.17436L6.54064 2.30499L6.47502 2.09499L6.64408 1.96655H6.43502L6.37064 1.75562L6.30627 1.96655H6.09783L6.26658 2.09499L6.20095 2.30499Z" fill="white"/>
<path d="M1.9722 2.85344L2.14189 2.72312L2.31158 2.85344L2.24627 2.64375L2.41502 2.51531H2.20627L2.14158 2.30469L2.07814 2.51531H1.86877L2.03783 2.64375L1.9722 2.85344Z" fill="white"/>
<path d="M3.09562 2.85344L3.26531 2.72312L3.435 2.85344L3.36938 2.64375L3.53813 2.51531H3.32813L3.26531 2.30469L3.20063 2.51531H2.99219L3.16125 2.64375L3.09562 2.85344Z" fill="white"/>
<path d="M4.3347 2.85344L4.50408 2.72312L4.67377 2.85344L4.60814 2.64375L4.7772 2.51531H4.56877L4.50408 2.30469L4.43939 2.51531H4.23064L4.3997 2.64375L4.3347 2.85344Z" fill="white"/>
<path d="M5.56406 2.85344L5.73406 2.72312L5.90406 2.85344L5.8375 2.64375L6.00688 2.51531H5.79844L5.73375 2.30469L5.66969 2.51531H5.46094L5.63 2.64375L5.56406 2.85344Z" fill="white"/>
<path d="M6.8 2.85344L6.96844 2.72312L7.13813 2.85344L7.07188 2.64375L7.24125 2.51531H7.03313L6.96813 2.30469L6.90406 2.51531H6.69531L6.86437 2.64375L6.8 2.85344Z" fill="white"/>
<path d="M7.49594 2.30499L7.66563 2.17436L7.83563 2.30499L7.76969 2.09499L7.93844 1.96655H7.73125L7.66531 1.75562L7.60094 1.96655H7.39062L7.56156 2.09499L7.49594 2.30499Z" fill="white"/>
<path d="M1.35782 6.69373L1.52782 6.56466L1.69751 6.69373L1.63189 6.4856L1.80064 6.35685L1.5922 6.35748L1.5272 6.14685L1.46345 6.35748L1.25439 6.35685L1.42345 6.4856L1.35782 6.69373Z" fill="white"/>
<path d="M2.48128 6.69373L2.65097 6.56466L2.82097 6.69373L2.75503 6.4856L2.92378 6.35685L2.71565 6.35748L2.65065 6.14685L2.58659 6.35748L2.37815 6.35685L2.5469 6.4856L2.48128 6.69373Z" fill="white"/>
<path d="M3.72032 6.69373L3.89001 6.56466L4.06001 6.69373L3.99407 6.4856L4.16282 6.35685L3.95313 6.35748L3.88969 6.14685L3.82532 6.35748L3.61688 6.35685L3.78594 6.4856L3.72032 6.69373Z" fill="white"/>
<path d="M4.95034 6.69373L5.12003 6.56466L5.28972 6.69373L5.22503 6.4856L5.39284 6.35685L5.18409 6.35748L5.11972 6.14685L5.05534 6.35748L4.8469 6.35685L5.01565 6.4856L4.95034 6.69373Z" fill="white"/>
<path d="M6.1844 6.69373L6.3544 6.56466L6.52441 6.69373L6.45941 6.4856L6.62722 6.35685L6.41878 6.35748L6.35409 6.14685L6.29003 6.35748L6.08128 6.35685L6.25003 6.4856L6.1844 6.69373Z" fill="white"/>
<path d="M7.47937 6.69373L7.64906 6.56466L7.81906 6.69373L7.75312 6.4856L7.92219 6.35685L7.7125 6.35748L7.64875 6.14685L7.58438 6.35748L7.375 6.35685L7.545 6.4856L7.47937 6.69373Z" fill="white"/>
<path d="M1.37437 3.40249L1.54437 3.27186L1.71406 3.40249L1.64812 3.19249L1.81719 3.06405L1.60844 3.06467L1.54375 2.85342L1.47937 3.06467L1.27094 3.06405L1.44062 3.19249L1.37437 3.40249Z" fill="white"/>
<path d="M2.49753 3.40249L2.66753 3.27186L2.83722 3.40249L2.77159 3.19249L2.94034 3.06405L2.7319 3.06467L2.66722 2.85342L2.60284 3.06467L2.39378 3.06405L2.56347 3.19249L2.49753 3.40249Z" fill="white"/>
<path d="M3.73658 3.40249L3.90627 3.27186L4.07627 3.40249L4.01033 3.19249L4.17908 3.06405L3.97189 3.06467L3.90627 2.85342L3.84158 3.06467L3.63439 3.06405L3.8022 3.19249L3.73658 3.40249Z" fill="white"/>
<path d="M4.96658 3.40249L5.13627 3.27186L5.30627 3.40249L5.24064 3.19249L5.40939 3.06405L5.20002 3.06467L5.13627 2.85342L5.07189 3.06467L4.86314 3.06405L5.03252 3.19249L4.96658 3.40249Z" fill="white"/>
<path d="M6.20095 3.40249L6.37095 3.27186L6.54064 3.40249L6.47502 3.19249L6.64408 3.06405L6.43502 3.06467L6.37064 2.85342L6.30627 3.06467L6.09783 3.06405L6.26658 3.19249L6.20095 3.40249Z" fill="white"/>
<path d="M1.9722 3.95125L2.14189 3.82093L2.31158 3.95125L2.24627 3.74156L2.41502 3.6125H2.20627L2.14158 3.4025L2.07814 3.6125H1.86877L2.03783 3.74156L1.9722 3.95125Z" fill="white"/>
<path d="M3.09562 3.95125L3.26531 3.82093L3.435 3.95125L3.36938 3.74156L3.53813 3.6125H3.32813L3.26531 3.4025L3.20063 3.6125H2.99219L3.16125 3.74156L3.09562 3.95125Z" fill="white"/>
<path d="M4.3347 3.95125L4.50408 3.82093L4.67377 3.95125L4.60814 3.74156L4.7772 3.6125H4.56877L4.50408 3.4025L4.43939 3.6125H4.23064L4.3997 3.74156L4.3347 3.95125Z" fill="white"/>
<path d="M5.56406 3.95125L5.73406 3.82093L5.90406 3.95125L5.8375 3.74156L6.00688 3.6125H5.79844L5.73375 3.4025L5.66969 3.6125H5.46094L5.63 3.74156L5.56406 3.95125Z" fill="white"/>
<path d="M6.8 3.95125L6.96844 3.82093L7.13813 3.95125L7.07188 3.74156L7.24125 3.6125H7.03313L6.96813 3.4025L6.90406 3.6125H6.69531L6.86437 3.74156L6.8 3.95125Z" fill="white"/>
<path d="M7.49594 3.40249L7.66563 3.27186L7.83563 3.40249L7.76969 3.19249L7.93844 3.06405L7.73125 3.06467L7.66531 2.85342L7.60094 3.06467L7.39062 3.06405L7.56156 3.19249L7.49594 3.40249Z" fill="white"/>
<path d="M1.35782 4.49998L1.52782 4.36967L1.69751 4.49998L1.63157 4.29061L1.80064 4.16186L1.59189 4.16248L1.5272 3.95123L1.46345 4.16248L1.25439 4.16186L1.42345 4.29061L1.35782 4.49998Z" fill="white"/>
<path d="M2.48128 4.49998L2.65097 4.36967L2.82097 4.49998L2.75503 4.29061L2.92378 4.16186L2.71565 4.16248L2.65065 3.95123L2.58659 4.16248L2.37815 4.16186L2.54659 4.29061L2.48128 4.49998Z" fill="white"/>
<path d="M3.72032 4.49998L3.89001 4.36967L4.05969 4.49998L3.99407 4.29061L4.16282 4.16186L3.95313 4.16248L3.88969 3.95123L3.82532 4.16248L3.61688 4.16186L3.78594 4.29061L3.72032 4.49998Z" fill="white"/>
<path d="M4.95034 4.49998L5.11972 4.36967L5.28972 4.49998L5.22503 4.29061L5.39284 4.16186L5.18409 4.16248L5.11972 3.95123L5.05534 4.16248L4.8469 4.16186L5.01565 4.29061L4.95034 4.49998Z" fill="white"/>
<path d="M6.1844 4.49998L6.3544 4.36967L6.52409 4.49998L6.45941 4.29061L6.62722 4.16186L6.41847 4.16248L6.35409 3.95123L6.29003 4.16248L6.08128 4.16186L6.25003 4.29061L6.1844 4.49998Z" fill="white"/>
<path d="M1.95565 5.04875L2.12534 4.91875L2.29503 5.04875L2.22971 4.84063L2.39815 4.71125H2.1894L2.12503 4.5L2.06096 4.71125H1.85221L2.02128 4.84063L1.95565 5.04875Z" fill="white"/>
<path d="M3.07908 5.04875L3.24877 4.91875L3.41846 5.04875L3.35283 4.84063L3.52158 4.71125H3.31252L3.24846 4.5L3.18408 4.71125H2.97533L3.14471 4.84063L3.07908 5.04875Z" fill="white"/>
<path d="M4.31846 5.04875L4.48753 4.91875L4.65753 5.04875L4.59065 4.84063L4.76065 4.71125H4.55221L4.48753 4.5L4.42315 4.71125H4.2144L4.38346 4.84063L4.31846 5.04875Z" fill="white"/>
<path d="M5.54689 5.04875L5.71751 4.91875L5.88752 5.04875L5.82189 4.84063L5.99033 4.71125H5.78189L5.7172 4.5L5.65314 4.71125H5.44439L5.61345 4.84063L5.54689 5.04875Z" fill="white"/>
<path d="M6.78126 5.04875L6.95189 4.91875L7.12189 5.04875L7.05595 4.84063L7.22533 4.71125H7.01689L6.95189 4.5L6.88752 4.71125H6.67876L6.84783 4.84063L6.78126 5.04875Z" fill="white"/>
<path d="M7.47937 4.49998L7.64906 4.36967L7.81875 4.49998L7.75312 4.29061L7.92219 4.16186L7.7125 4.16248L7.64875 3.95123L7.58438 4.16248L7.375 4.16186L7.545 4.29061L7.47937 4.49998Z" fill="white"/>
<path d="M1.35782 5.5978L1.52782 5.46874L1.69751 5.5978L1.63157 5.38811L1.80064 5.25936L1.59189 5.25999L1.5272 5.04874L1.46345 5.25999L1.25439 5.25936L1.42345 5.38811L1.35782 5.5978Z" fill="white"/>
<path d="M2.48128 5.5978L2.65097 5.46874L2.82097 5.5978L2.75503 5.38811L2.92378 5.25936L2.71565 5.25999L2.65065 5.04874L2.58659 5.25999L2.37815 5.25936L2.54659 5.38811L2.48128 5.5978Z" fill="white"/>
<path d="M3.72032 5.5978L3.89001 5.46874L4.05969 5.5978L3.99407 5.38811L4.16282 5.25936L3.95313 5.25999L3.88969 5.04874L3.82532 5.25999L3.61688 5.25936L3.78594 5.38811L3.72032 5.5978Z" fill="white"/>
<path d="M4.95034 5.5978L5.11972 5.46874L5.28972 5.5978L5.22503 5.38811L5.39284 5.25936L5.18409 5.25999L5.11972 5.04874L5.05534 5.25999L4.8469 5.25936L5.01565 5.38811L4.95034 5.5978Z" fill="white"/>
<path d="M6.1844 5.5978L6.3544 5.46874L6.52409 5.5978L6.45941 5.38811L6.62722 5.25936L6.41847 5.25999L6.35409 5.04874L6.29003 5.25999L6.08128 5.25936L6.25003 5.38811L6.1844 5.5978Z" fill="white"/>
<path d="M1.95565 6.14687L2.12534 6.01625L2.29503 6.14687L2.22971 5.93687L2.39815 5.80937H2.1894L2.12503 5.59781L2.06096 5.80937H1.85221L2.02128 5.93687L1.95565 6.14687Z" fill="white"/>
<path d="M3.07908 6.14687L3.24877 6.01625L3.41846 6.14687L3.35283 5.93687L3.52158 5.80937H3.31252L3.24846 5.59781L3.18408 5.80937H2.97533L3.14471 5.93687L3.07908 6.14687Z" fill="white"/>
<path d="M4.31846 6.14687L4.48753 6.01625L4.65753 6.14687L4.59065 5.93687L4.76065 5.80937H4.55221L4.48753 5.59781L4.42315 5.80937H4.2144L4.38346 5.93687L4.31846 6.14687Z" fill="white"/>
<path d="M5.54689 6.14687L5.71751 6.01625L5.88752 6.14687L5.82189 5.93687L5.99033 5.80937H5.78189L5.7172 5.59781L5.65314 5.80937H5.44439L5.61345 5.93687L5.54689 6.14687Z" fill="white"/>
<path d="M6.78126 6.14687L6.95189 6.01625L7.12189 6.14687L7.05595 5.93687L7.22533 5.80937H7.01689L6.95189 5.59781L6.88752 5.80937H6.67876L6.84783 5.93687L6.78126 6.14687Z" fill="white"/>
<path d="M7.47937 5.5978L7.64906 5.46874L7.81875 5.5978L7.75312 5.38811L7.92219 5.25936L7.7125 5.25999L7.64875 5.04874L7.58438 5.25999L7.375 5.25936L7.545 5.38811L7.47937 5.5978Z" fill="white"/>
</g>
<defs>
<clipPath id="clip0">
<rect width="20" height="13.75" fill="white" transform="translate(0.5 0.4375)"/>
</clipPath>
</defs>
</svg>
