<svg width="20" height="20" viewBox="0 0 20 20" fill="none" xmlns="http://www.w3.org/2000/svg">
<path d="M8.125 5.55V6.60625H19.9891C19.9725 6.26563 19.9369 5.835 19.8094 5.55" fill="#EC1C24"/>
<path d="M19.25 4.49374H8.125V5.54999H19.8094C19.6825 5.15593 19.4938 4.79656 19.25 4.49374Z" fill="#E6E7E8"/>
<path d="M16.875 3.4375H8.125V4.49375H19.25C18.7284 3.84063 17.87 3.4375 16.875 3.4375Z" fill="#EC1C24"/>
<path d="M19.9891 6.60626H8.125V7.66251H20V6.95845C20 6.89564 19.9959 6.83439 19.9941 6.77282C19.9928 6.75595 19.9909 6.71251 19.9891 6.60626Z" fill="#E6E7E8"/>
<path d="M8.125 8.71876H20V7.66251H8.125V8.71876Z" fill="#EC1C24"/>
<path d="M8.125 9.775H20V8.71875H8.125V9.775Z" fill="#E6E7E8"/>
<path d="M8.125 9.77499H20V10.8312H8.125V9.77499Z" fill="#EC1C24"/>
<path d="M0 10.8312V11.8875H20V10.8312H8.125H0Z" fill="#E6E7E8"/>
<path d="M0 11.8875H20V12.9437H0V11.8875Z" fill="#EC1C24"/>
<path d="M0.0015625 13.5934C0.0015625 13.5934 -0.00125 13.8494 0.00625 14H19.9937C20.0025 13.8456 19.9984 13.5934 19.9984 13.5934L20 12.9438H0L0.0015625 13.5934Z" fill="#E6E7E8"/>
<path d="M3.12501 17.1875H16.875C17.8728 17.1875 18.7022 16.825 19.2688 16.1125H0.728138C1.31314 16.8406 2.15814 17.1875 3.12345 17.1875" fill="#EC1C24"/>
<path d="M0.729701 16.1125H19.2703C19.5175 15.7984 19.7021 15.4399 19.8141 15.0562H0.189076C0.303169 15.4387 0.486987 15.7968 0.731264 16.1125" fill="#E6E7E8"/>
<path d="M0.18125 15.2229H19.8062C19.9086 14.8793 19.9694 14.5247 19.9875 14.1667H0C0.0309375 14.5279 0.0596875 14.8007 0.18125 15.2229Z" fill="#EC1C24"/>
<path d="M8.125 3.4375H3.125C1.05406 3.4375 0 4.97656 0 6.875V10.8313H8.125V3.4375Z" fill="#176496"/>
<path d="M0.874374 5.30499L1.04437 5.17436L1.21406 5.30499L1.14812 5.09499L1.31719 4.96655H1.10844L1.04375 4.75562L0.979374 4.96655H0.770936L0.940624 5.09499L0.874374 5.30499Z" fill="white"/>
<path d="M1.99753 5.30499L2.16753 5.17436L2.33721 5.30499L2.27159 5.09499L2.44034 4.96655H2.2319L2.16721 4.75562L2.10284 4.96655H1.89378L2.06346 5.09499L1.99753 5.30499Z" fill="white"/>
<path d="M3.23658 5.30499L3.40626 5.17436L3.57626 5.30499L3.51033 5.09499L3.67908 4.96655H3.47189L3.40626 4.75562L3.34158 4.96655H3.13439L3.3022 5.09499L3.23658 5.30499Z" fill="white"/>
<path d="M4.46658 5.30499L4.63627 5.17436L4.80627 5.30499L4.74064 5.09499L4.90939 4.96655H4.70002L4.63627 4.75562L4.57189 4.96655H4.36314L4.53252 5.09499L4.46658 5.30499Z" fill="white"/>
<path d="M5.70095 5.30499L5.87095 5.17436L6.04064 5.30499L5.97502 5.09499L6.14408 4.96655H5.93502L5.87064 4.75562L5.80627 4.96655H5.59783L5.76658 5.09499L5.70095 5.30499Z" fill="white"/>
<path d="M1.4722 5.85342L1.64189 5.72311L1.81158 5.85342L1.74626 5.64373L1.91501 5.5153H1.70626L1.64158 5.30467L1.57814 5.5153H1.36876L1.53783 5.64373L1.4722 5.85342Z" fill="white"/>
<path d="M2.59562 5.85342L2.76531 5.72311L2.935 5.85342L2.86937 5.64373L3.03812 5.5153H2.82812L2.76531 5.30467L2.70062 5.5153H2.49219L2.66125 5.64373L2.59562 5.85342Z" fill="white"/>
<path d="M3.8347 5.85342L4.00408 5.72311L4.17377 5.85342L4.10814 5.64373L4.2772 5.5153H4.06877L4.00408 5.30467L3.93939 5.5153H3.73064L3.8997 5.64373L3.8347 5.85342Z" fill="white"/>
<path d="M5.06406 5.85342L5.23406 5.72311L5.40406 5.85342L5.3375 5.64373L5.50688 5.5153H5.29844L5.23375 5.30467L5.16969 5.5153H4.96094L5.13 5.64373L5.06406 5.85342Z" fill="white"/>
<path d="M6.3 5.85342L6.46844 5.72311L6.63813 5.85342L6.57188 5.64373L6.74125 5.5153H6.53313L6.46813 5.30467L6.40406 5.5153H6.19531L6.36437 5.64373L6.3 5.85342Z" fill="white"/>
<path d="M6.99594 5.30499L7.16562 5.17436L7.33562 5.30499L7.26969 5.09499L7.43844 4.96655H7.23125L7.16531 4.75562L7.10094 4.96655H6.89062L7.06156 5.09499L6.99594 5.30499Z" fill="white"/>
<path d="M0.857823 9.69374L1.02782 9.56468L1.19751 9.69374L1.13189 9.48562L1.30064 9.35687L1.0922 9.35749L1.0272 9.14687L0.963448 9.35749L0.754386 9.35687L0.923448 9.48562L0.857823 9.69374Z" fill="white"/>
<path d="M1.98128 9.69374L2.15097 9.56468L2.32097 9.69374L2.25503 9.48562L2.42378 9.35687L2.21565 9.35749L2.15065 9.14687L2.08659 9.35749L1.87815 9.35687L2.0469 9.48562L1.98128 9.69374Z" fill="white"/>
<path d="M3.22032 9.69374L3.39 9.56468L3.56 9.69374L3.49407 9.48562L3.66282 9.35687L3.45313 9.35749L3.38969 9.14687L3.32532 9.35749L3.11688 9.35687L3.28594 9.48562L3.22032 9.69374Z" fill="white"/>
<path d="M4.45034 9.69374L4.62003 9.56468L4.78971 9.69374L4.72503 9.48562L4.89284 9.35687L4.68409 9.35749L4.61972 9.14687L4.55534 9.35749L4.3469 9.35687L4.51565 9.48562L4.45034 9.69374Z" fill="white"/>
<path d="M5.6844 9.69374L5.8544 9.56468L6.0244 9.69374L5.9594 9.48562L6.12722 9.35687L5.91878 9.35749L5.85409 9.14687L5.79003 9.35749L5.58128 9.35687L5.75003 9.48562L5.6844 9.69374Z" fill="white"/>
<path d="M6.97937 9.69374L7.14906 9.56468L7.31906 9.69374L7.25312 9.48562L7.42219 9.35687L7.2125 9.35749L7.14875 9.14687L7.08438 9.35749L6.875 9.35687L7.045 9.48562L6.97937 9.69374Z" fill="white"/>
<path d="M0.874374 6.40249L1.04437 6.27186L1.21406 6.40249L1.14812 6.19249L1.31719 6.06405L1.10844 6.06467L1.04375 5.85342L0.979374 6.06467L0.770936 6.06405L0.940624 6.19249L0.874374 6.40249Z" fill="white"/>
<path d="M1.99753 6.40249L2.16753 6.27186L2.33721 6.40249L2.27159 6.19249L2.44034 6.06405L2.2319 6.06467L2.16721 5.85342L2.10284 6.06467L1.89378 6.06405L2.06346 6.19249L1.99753 6.40249Z" fill="white"/>
<path d="M3.23658 6.40249L3.40626 6.27186L3.57626 6.40249L3.51033 6.19249L3.67908 6.06405L3.47189 6.06467L3.40626 5.85342L3.34158 6.06467L3.13439 6.06405L3.3022 6.19249L3.23658 6.40249Z" fill="white"/>
<path d="M4.46658 6.40249L4.63627 6.27186L4.80627 6.40249L4.74064 6.19249L4.90939 6.06405L4.70002 6.06467L4.63627 5.85342L4.57189 6.06467L4.36314 6.06405L4.53252 6.19249L4.46658 6.40249Z" fill="white"/>
<path d="M5.70095 6.40249L5.87095 6.27186L6.04064 6.40249L5.97502 6.19249L6.14408 6.06405L5.93502 6.06467L5.87064 5.85342L5.80627 6.06467L5.59783 6.06405L5.76658 6.19249L5.70095 6.40249Z" fill="white"/>
<path d="M1.4722 6.95125L1.64189 6.82093L1.81158 6.95125L1.74626 6.74156L1.91501 6.6125H1.70626L1.64158 6.4025L1.57814 6.6125H1.36876L1.53783 6.74156L1.4722 6.95125Z" fill="white"/>
<path d="M2.59562 6.95125L2.76531 6.82093L2.935 6.95125L2.86937 6.74156L3.03812 6.6125H2.82812L2.76531 6.4025L2.70062 6.6125H2.49219L2.66125 6.74156L2.59562 6.95125Z" fill="white"/>
<path d="M3.8347 6.95125L4.00408 6.82093L4.17377 6.95125L4.10814 6.74156L4.2772 6.6125H4.06877L4.00408 6.4025L3.93939 6.6125H3.73064L3.8997 6.74156L3.8347 6.95125Z" fill="white"/>
<path d="M5.06406 6.95125L5.23406 6.82093L5.40406 6.95125L5.3375 6.74156L5.50688 6.6125H5.29844L5.23375 6.4025L5.16969 6.6125H4.96094L5.13 6.74156L5.06406 6.95125Z" fill="white"/>
<path d="M6.3 6.95125L6.46844 6.82093L6.63813 6.95125L6.57188 6.74156L6.74125 6.6125H6.53313L6.46813 6.4025L6.40406 6.6125H6.19531L6.36437 6.74156L6.3 6.95125Z" fill="white"/>
<path d="M6.99594 6.40249L7.16562 6.27186L7.33562 6.40249L7.26969 6.19249L7.43844 6.06405L7.23125 6.06467L7.16531 5.85342L7.10094 6.06467L6.89062 6.06405L7.06156 6.19249L6.99594 6.40249Z" fill="white"/>
<path d="M0.857823 7.49998L1.02782 7.36967L1.19751 7.49998L1.13157 7.29061L1.30064 7.16186L1.09189 7.16248L1.0272 6.95123L0.963448 7.16248L0.754386 7.16186L0.923448 7.29061L0.857823 7.49998Z" fill="white"/>
<path d="M1.98128 7.49998L2.15097 7.36967L2.32097 7.49998L2.25503 7.29061L2.42378 7.16186L2.21565 7.16248L2.15065 6.95123L2.08659 7.16248L1.87815 7.16186L2.04659 7.29061L1.98128 7.49998Z" fill="white"/>
<path d="M3.22032 7.49998L3.39 7.36967L3.55969 7.49998L3.49407 7.29061L3.66282 7.16186L3.45313 7.16248L3.38969 6.95123L3.32532 7.16248L3.11688 7.16186L3.28594 7.29061L3.22032 7.49998Z" fill="white"/>
<path d="M4.45034 7.49998L4.61972 7.36967L4.78971 7.49998L4.72503 7.29061L4.89284 7.16186L4.68409 7.16248L4.61972 6.95123L4.55534 7.16248L4.3469 7.16186L4.51565 7.29061L4.45034 7.49998Z" fill="white"/>
<path d="M5.6844 7.49998L5.8544 7.36967L6.02409 7.49998L5.9594 7.29061L6.12722 7.16186L5.91847 7.16248L5.85409 6.95123L5.79003 7.16248L5.58128 7.16186L5.75003 7.29061L5.6844 7.49998Z" fill="white"/>
<path d="M1.45565 8.04875L1.62534 7.91875L1.79503 8.04875L1.72971 7.84063L1.89815 7.71125H1.6894L1.62503 7.5L1.56096 7.71125H1.35221L1.52128 7.84063L1.45565 8.04875Z" fill="white"/>
<path d="M2.57908 8.04875L2.74877 7.91875L2.91845 8.04875L2.85283 7.84063L3.02158 7.71125H2.81252L2.74845 7.5L2.68408 7.71125H2.47533L2.6447 7.84063L2.57908 8.04875Z" fill="white"/>
<path d="M3.81846 8.04875L3.98752 7.91875L4.15752 8.04875L4.09065 7.84063L4.26065 7.71125H4.05221L3.98752 7.5L3.92315 7.71125H3.7144L3.88346 7.84063L3.81846 8.04875Z" fill="white"/>
<path d="M5.04689 8.04875L5.21751 7.91875L5.38751 8.04875L5.32189 7.84063L5.49033 7.71125H5.28189L5.2172 7.5L5.15314 7.71125H4.94439L5.11345 7.84063L5.04689 8.04875Z" fill="white"/>
<path d="M6.28126 8.04875L6.45189 7.91875L6.62189 8.04875L6.55595 7.84063L6.72533 7.71125H6.51689L6.45189 7.5L6.38751 7.71125H6.17876L6.34783 7.84063L6.28126 8.04875Z" fill="white"/>
<path d="M6.97937 7.49998L7.14906 7.36967L7.31875 7.49998L7.25312 7.29061L7.42219 7.16186L7.2125 7.16248L7.14875 6.95123L7.08438 7.16248L6.875 7.16186L7.045 7.29061L6.97937 7.49998Z" fill="white"/>
<path d="M0.857823 8.5978L1.02782 8.46874L1.19751 8.5978L1.13157 8.38811L1.30064 8.25936L1.09189 8.25999L1.0272 8.04874L0.963448 8.25999L0.754386 8.25936L0.923448 8.38811L0.857823 8.5978Z" fill="white"/>
<path d="M1.98128 8.5978L2.15097 8.46874L2.32097 8.5978L2.25503 8.38811L2.42378 8.25936L2.21565 8.25999L2.15065 8.04874L2.08659 8.25999L1.87815 8.25936L2.04659 8.38811L1.98128 8.5978Z" fill="white"/>
<path d="M3.22032 8.5978L3.39 8.46874L3.55969 8.5978L3.49407 8.38811L3.66282 8.25936L3.45313 8.25999L3.38969 8.04874L3.32532 8.25999L3.11688 8.25936L3.28594 8.38811L3.22032 8.5978Z" fill="white"/>
<path d="M4.45034 8.5978L4.61972 8.46874L4.78971 8.5978L4.72503 8.38811L4.89284 8.25936L4.68409 8.25999L4.61972 8.04874L4.55534 8.25999L4.3469 8.25936L4.51565 8.38811L4.45034 8.5978Z" fill="white"/>
<path d="M5.6844 8.5978L5.8544 8.46874L6.02409 8.5978L5.9594 8.38811L6.12722 8.25936L5.91847 8.25999L5.85409 8.04874L5.79003 8.25999L5.58128 8.25936L5.75003 8.38811L5.6844 8.5978Z" fill="white"/>
<path d="M1.45565 9.14687L1.62534 9.01625L1.79503 9.14687L1.72971 8.93687L1.89815 8.80937H1.6894L1.62503 8.59781L1.56096 8.80937H1.35221L1.52128 8.93687L1.45565 9.14687Z" fill="white"/>
<path d="M2.57908 9.14687L2.74877 9.01625L2.91845 9.14687L2.85283 8.93687L3.02158 8.80937H2.81252L2.74845 8.59781L2.68408 8.80937H2.47533L2.6447 8.93687L2.57908 9.14687Z" fill="white"/>
<path d="M3.81846 9.14687L3.98752 9.01625L4.15752 9.14687L4.09065 8.93687L4.26065 8.80937H4.05221L3.98752 8.59781L3.92315 8.80937H3.7144L3.88346 8.93687L3.81846 9.14687Z" fill="white"/>
<path d="M5.04689 9.14687L5.21751 9.01625L5.38751 9.14687L5.32189 8.93687L5.49033 8.80937H5.28189L5.2172 8.59781L5.15314 8.80937H4.94439L5.11345 8.93687L5.04689 9.14687Z" fill="white"/>
<path d="M6.28126 9.14687L6.45189 9.01625L6.62189 9.14687L6.55595 8.93687L6.72533 8.80937H6.51689L6.45189 8.59781L6.38751 8.80937H6.17876L6.34783 8.93687L6.28126 9.14687Z" fill="white"/>
<path d="M6.97937 8.5978L7.14906 8.46874L7.31875 8.5978L7.25312 8.38811L7.42219 8.25936L7.2125 8.25999L7.14875 8.04874L7.08438 8.25999L6.875 8.25936L7.045 8.38811L6.97937 8.5978Z" fill="white"/>
</svg>
