<svg width="20" height="20" viewBox="0 0 20 20" fill="none" xmlns="http://www.w3.org/2000/svg">
<path d="M10 5.83333C7.7 5.83333 5.83333 7.69999 5.83333 9.99999C5.83333 12.3 7.7 14.1667 10 14.1667C12.3 14.1667 14.1667 12.3 14.1667 9.99999C14.1667 7.69999 12.3 5.83333 10 5.83333ZM1.66667 10.8333H3.33333C3.79167 10.8333 4.16667 10.4583 4.16667 9.99999C4.16667 9.54166 3.79167 9.16666 3.33333 9.16666H1.66667C1.20833 9.16666 0.833332 9.54166 0.833332 9.99999C0.833332 10.4583 1.20833 10.8333 1.66667 10.8333ZM16.6667 10.8333H18.3333C18.7917 10.8333 19.1667 10.4583 19.1667 9.99999C19.1667 9.54166 18.7917 9.16666 18.3333 9.16666H16.6667C16.2083 9.16666 15.8333 9.54166 15.8333 9.99999C15.8333 10.4583 16.2083 10.8333 16.6667 10.8333ZM9.16666 1.66666V3.33333C9.16666 3.79166 9.54166 4.16666 10 4.16666C10.4583 4.16666 10.8333 3.79166 10.8333 3.33333V1.66666C10.8333 1.20833 10.4583 0.833328 10 0.833328C9.54166 0.833328 9.16666 1.20833 9.16666 1.66666ZM9.16666 16.6667V18.3333C9.16666 18.7917 9.54166 19.1667 10 19.1667C10.4583 19.1667 10.8333 18.7917 10.8333 18.3333V16.6667C10.8333 16.2083 10.4583 15.8333 10 15.8333C9.54166 15.8333 9.16666 16.2083 9.16666 16.6667ZM4.99166 3.81666C4.91457 3.73941 4.823 3.67812 4.72219 3.6363C4.62137 3.59448 4.51331 3.57296 4.40416 3.57296C4.29502 3.57296 4.18696 3.59448 4.08614 3.6363C3.98533 3.67812 3.89376 3.73941 3.81667 3.81666C3.73941 3.89376 3.67812 3.98533 3.6363 4.08614C3.59449 4.18695 3.57296 4.29502 3.57296 4.40416C3.57296 4.5133 3.59449 4.62137 3.6363 4.72218C3.67812 4.82299 3.73941 4.91457 3.81667 4.99166L4.7 5.87499C5.025 6.19999 5.55833 6.19999 5.875 5.87499C6.19167 5.54999 6.2 5.01666 5.875 4.69999L4.99166 3.81666ZM15.3 14.125C15.2229 14.0477 15.1313 13.9865 15.0305 13.9446C14.9297 13.9028 14.8216 13.8813 14.7125 13.8813C14.6034 13.8813 14.4953 13.9028 14.3945 13.9446C14.2937 13.9865 14.2021 14.0477 14.125 14.125C14.0477 14.2021 13.9865 14.2937 13.9446 14.3945C13.9028 14.4953 13.8813 14.6034 13.8813 14.7125C13.8813 14.8216 13.9028 14.9297 13.9446 15.0305C13.9865 15.1313 14.0477 15.2229 14.125 15.3L15.0083 16.1833C15.3333 16.5083 15.8667 16.5083 16.1833 16.1833C16.2606 16.1062 16.3219 16.0147 16.3637 15.9138C16.4055 15.813 16.427 15.705 16.427 15.5958C16.427 15.4867 16.4055 15.3786 16.3637 15.2778C16.3219 15.177 16.2606 15.0854 16.1833 15.0083L15.3 14.125ZM16.1833 4.99166C16.2606 4.91457 16.3219 4.82299 16.3637 4.72218C16.4055 4.62137 16.427 4.5133 16.427 4.40416C16.427 4.29502 16.4055 4.18695 16.3637 4.08614C16.3219 3.98533 16.2606 3.89376 16.1833 3.81666C16.1062 3.73941 16.0147 3.67812 15.9139 3.6363C15.813 3.59448 15.705 3.57296 15.5958 3.57296C15.4867 3.57296 15.3786 3.59448 15.2778 3.6363C15.177 3.67812 15.0854 3.73941 15.0083 3.81666L14.125 4.69999C13.8 5.02499 13.8 5.55833 14.125 5.87499C14.45 6.19166 14.9833 6.19999 15.3 5.87499L16.1833 4.99166ZM5.875 15.3C5.95225 15.2229 6.01354 15.1313 6.05536 15.0305C6.09718 14.9297 6.1187 14.8216 6.1187 14.7125C6.1187 14.6034 6.09718 14.4953 6.05536 14.3945C6.01354 14.2937 5.95225 14.2021 5.875 14.125C5.7979 14.0477 5.70633 13.9865 5.60552 13.9446C5.50471 13.9028 5.39664 13.8813 5.2875 13.8813C5.17836 13.8813 5.07029 13.9028 4.96948 13.9446C4.86867 13.9865 4.77709 14.0477 4.7 14.125L3.81667 15.0083C3.49167 15.3333 3.49167 15.8667 3.81667 16.1833C4.14167 16.5 4.675 16.5083 4.99166 16.1833L5.875 15.3V15.3Z" fill="#4E6172"/>
</svg>
