<svg width="49" height="48" viewBox="0 0 49 48" fill="none" xmlns="http://www.w3.org/2000/svg">
<path fill-rule="evenodd" clip-rule="evenodd" d="M5.62685 3L8.99585 40.8015L24.1203 45L39.2853 40.7955L42.6588 3H5.62685ZM30.2779 19.7865H24.1429L18.6304 19.7865L18.7414 21.03L18.9514 23.3805L19.0444 24.423L24.1429 24.423H29.8657L29.3253 30.435L24.1548 31.83V31.8317L24.1504 31.833L18.9874 30.438L18.6574 26.7405H14.0029L14.6524 34.02L24.1489 36.657L24.1714 36.651V36.6494L33.6588 34.02L33.7293 33.237L34.5173 24.423H34.5184L35.6569 11.646L35.7679 10.4025H24.1593H24.1429H12.5448L12.6558 11.646L12.8673 13.9965L12.9603 15.039H24.1429H24.1593H30.7009L30.2779 19.7865Z" fill="black"/>
</svg>
