<svg width="48" height="48" viewBox="0 0 48 48" fill="none" xmlns="http://www.w3.org/2000/svg">
<path d="M7.77889 31.3482L12.5078 0.921371C12.5425 0.696039 12.6472 0.487329 12.807 0.324775C12.9669 0.162221 13.1738 0.0540558 13.3985 0.0155854C13.6233 -0.0228851 13.8544 0.0102873 14.0592 0.110409C14.264 0.21053 14.4322 0.37253 14.5399 0.573484L19.6262 10.12L7.77889 31.3482ZM41.3703 38.7306L36.867 10.7294C36.8331 10.5334 36.7462 10.3504 36.6157 10.2004C36.4852 10.0503 36.3161 9.93878 36.1268 9.87797C35.9374 9.81716 35.735 9.80935 35.5415 9.85539C35.348 9.90144 35.1709 9.99957 35.0292 10.1392L6.62967 38.7306L22.3445 47.5861C23.3306 48.138 24.5326 48.138 25.5187 47.5861L41.3703 38.7306ZM28.5993 14.2946L24.9597 7.32968C24.8677 7.15484 24.7297 7.00845 24.5605 6.90633C24.3914 6.80421 24.1976 6.75023 24 6.75023C23.8024 6.75023 23.6086 6.80421 23.4395 6.90633C23.2703 7.00845 23.1323 7.15484 23.0403 7.32968L7.05913 35.9691L28.5993 14.2946Z" fill="black"/>
</svg>
