<svg width="48" height="48" viewBox="0 0 48 48" fill="none" xmlns="http://www.w3.org/2000/svg">
<path fill-rule="evenodd" clip-rule="evenodd" d="M8.85301 40.8015L5.48251 3H42.5175L39.1425 40.7955L23.9775 45L8.85301 40.8015ZM24 20.1105H17.865L17.442 15.363H23.9835H24H35.1825L35.2755 14.322L35.487 11.9715L35.598 10.7265H24H23.9835H12.375L12.486 11.9715L13.6245 24.747L23.9835 24.747H29.6925L29.1555 30.7605L24 32.151V32.151L23.9976 32.1517L23.9835 32.1555V32.1557L23.979 32.157L18.816 30.7635L18.486 27.066H13.8315L14.481 34.344L23.979 36.981L24 36.975V36.9749L33.489 34.344L33.558 33.561L34.647 21.3555L34.761 20.1105L24 20.1105Z" fill="black"/>
</svg>
