<svg width="48" height="48" viewBox="0 0 48 48" fill="none" xmlns="http://www.w3.org/2000/svg">
<g clip-path="url(#clip0)">
<path d="M42.2332 32.2597C41.9055 34.1475 40.7396 35.7963 39.0347 36.7839C37.4453 37.7044 35.5407 37.9792 33.524 38.2699C32.4438 38.4256 31.3267 38.5869 30.2354 38.8559C27.35 39.5674 24.5551 40.9557 21.8526 42.2982C16.4437 44.9848 11.7726 47.3048 7.36809 44.2521C4.14175 42.0161 4.29067 37.879 4.66652 35.6119C5.01491 33.5115 5.95676 31.577 6.8674 29.7064C7.02254 29.3885 7.17644 29.0699 7.32908 28.7508C7.78813 28.9343 8.2698 29.0552 8.76111 29.1101C7.83402 32.1697 9.29199 35.4964 12.352 37.0684L12.7709 37.2836L13.2143 37.1257C15.6334 36.2641 17.8626 34.8818 19.8398 33.0162C21.1178 31.8104 22.2167 30.4764 23.1199 29.051C23.3945 29.0924 23.6718 29.1133 23.9495 29.1133C26.7581 29.1133 29.0838 27.0137 29.4437 24.3019C30.5933 24.2598 31.8143 24.2595 32.9706 24.3016C33.3302 27.0137 35.6562 29.1134 38.4648 29.1134C39.6392 29.1134 40.7284 28.7454 41.6258 28.1202C42.2488 29.3955 42.4814 30.8304 42.2332 32.2597V32.2597ZM9.37951 20.2338C11.2364 20.2338 12.747 21.7445 12.747 23.6014C12.747 24.2683 12.5512 24.8903 12.2152 25.4141C11.6555 26.287 10.704 26.8854 9.61086 26.9601C9.53437 26.9651 9.4572 26.9689 9.37951 26.9689C8.96566 26.9689 8.56928 26.8934 8.20275 26.7564C7.46457 26.4788 6.84642 25.9523 6.45491 25.2677C6.16419 24.7605 6.01144 24.186 6.01188 23.6014C6.01188 21.7445 7.52261 20.2338 9.37951 20.2338V20.2338ZM20.5822 23.5694C20.5822 21.8822 21.8293 20.4814 23.4498 20.2392C23.613 20.2146 23.7799 20.2019 23.9496 20.2019C25.0292 20.2019 25.9904 20.7133 26.6068 21.5057C26.7612 21.7033 26.893 21.9175 26.9999 22.1443C27.2092 22.5902 27.3175 23.0768 27.3171 23.5694C27.3171 23.8385 27.2845 24.1002 27.2247 24.3513C26.8965 25.7251 25.725 26.7753 24.2894 26.9199C24.1778 26.9311 24.0645 26.9368 23.9496 26.9368C23.3019 26.9374 22.6679 26.7499 22.1246 26.3973C21.1975 25.7967 20.5822 24.7538 20.5822 23.5694V23.5694ZM34.637 19.5648C33.9042 20.2643 33.3768 21.151 33.112 22.1288C31.8428 22.0821 30.5722 22.0821 29.3029 22.1288C29.018 21.0718 28.4274 20.1393 27.6327 19.431L31.1174 12.385L34.637 19.565V19.5648ZM19.6268 2.17679H42.5984L37.1727 18.1788C36.9393 18.2347 36.7098 18.3058 36.4856 18.3916L31.1259 7.45798L25.7509 18.3263C25.5166 18.2459 25.2771 18.1814 25.0341 18.1331L19.6268 2.17679V2.17679ZM41.8323 23.5695C41.8323 23.9071 41.7819 24.233 41.6891 24.5409C41.469 25.2656 41.0119 25.8955 40.3911 26.3294C39.8268 26.7254 39.1541 26.9376 38.4648 26.937C36.91 26.937 35.5984 25.8774 35.2127 24.4425C35.1361 24.1578 35.0973 23.8643 35.0973 23.5695C35.0973 23.1092 35.1903 22.6702 35.3582 22.2703C35.4448 22.0657 35.5515 21.8701 35.6767 21.6865C36.2828 20.792 37.3053 20.2021 38.4648 20.2021C38.5711 20.2021 38.676 20.2075 38.7799 20.2173C40.4896 20.3766 41.8324 21.8188 41.8324 23.5695H41.8323ZM44.0089 23.5695C44.0089 20.8629 42.0587 18.6045 39.4901 18.1221L45.6344 0H16.591L22.7449 18.1588C20.2655 18.7105 18.4057 20.9261 18.4057 23.5694C18.4057 25.5541 19.4546 27.2974 21.0266 28.2771C20.2704 29.4036 19.3739 30.4637 18.3464 31.4332C16.7167 32.9704 14.9014 34.1363 12.9442 34.9035C10.9728 33.6651 10.1395 31.3298 11.0049 29.2954L11.0727 29.136L11.2 28.8368C13.3652 28.0815 14.9234 26.0207 14.9234 23.6014C14.9234 20.5443 12.4364 18.0573 9.37951 18.0573C6.32244 18.0573 3.83543 20.5443 3.83543 23.6014C3.83543 25.1444 4.46978 26.5416 5.4905 27.5478C5.30012 27.9511 5.10687 28.3531 4.91076 28.7537C3.97739 30.6705 2.9197 32.843 2.51958 35.2557C1.72513 40.0473 3.00671 43.8776 6.1284 46.041C8.02262 47.3538 9.94635 47.8701 11.8821 47.8701C15.5271 47.8701 19.2144 46.0388 22.8209 44.2473C25.4181 42.9575 28.1039 41.6235 30.7568 40.9691C31.744 40.7257 32.7596 40.5792 33.8349 40.4241C35.9674 40.1165 38.1724 39.7984 40.1256 38.6673C42.3898 37.3559 43.9395 35.156 44.3778 32.6322C44.754 30.4654 44.3013 28.2952 43.1971 26.4546C43.7292 25.5864 44.0102 24.5877 44.0091 23.5694L44.0089 23.5695Z" fill="black"/>
</g>
<defs>
<clipPath id="clip0">
<rect width="43.43" height="48" fill="white" transform="translate(2.285)"/>
</clipPath>
</defs>
</svg>
