<svg width="49" height="48" viewBox="0 0 49 48" fill="none" xmlns="http://www.w3.org/2000/svg">
<g clip-path="url(#clip0)">
<path fill-rule="evenodd" clip-rule="evenodd" d="M3.28571 3H45.2857V45H3.28571V3ZM14.3291 38.0982L17.5431 36.1531C18.1632 37.2525 18.7273 38.1827 20.0803 38.1827C21.3772 38.1827 22.1951 37.6754 22.1951 35.7021V22.2821H26.1419V35.7579C26.1419 39.8458 23.7456 41.7066 20.2494 41.7066C17.0921 41.7066 15.2593 40.0714 14.3289 38.0979L14.3291 38.0982ZM31.4994 35.8146L28.2857 37.6753L28.2856 37.6754C29.4414 39.9592 31.8096 41.7071 35.4746 41.7071C39.2243 41.7071 42.0153 39.762 42.0153 36.2094C42.0153 32.9111 40.1264 31.4452 36.7714 30.0071L35.7847 29.5844C34.0932 28.8513 33.3602 28.3718 33.3602 27.1877C33.3602 26.2293 34.0932 25.4962 35.2492 25.4962C36.3769 25.4962 37.1097 25.9755 37.7864 27.1877L40.8596 25.2141C39.5629 22.9305 37.7585 22.0564 35.2493 22.0564C31.7251 22.0564 29.4698 24.3119 29.4698 27.2722C29.4698 30.4862 31.3586 32.0087 34.2062 33.2206L35.1927 33.6439C36.9971 34.4331 38.0684 34.9125 38.0684 36.2656C38.0684 37.3934 37.0257 38.2111 35.3901 38.2111C33.445 38.2111 32.3454 37.1962 31.4994 35.8146Z" fill="black"/>
</g>
<defs>
<clipPath id="clip0">
<rect width="42" height="42" fill="white" transform="translate(3.28571 3)"/>
</clipPath>
</defs>
</svg>
