<svg width="48" height="50" viewBox="0 0 48 50" fill="none" xmlns="http://www.w3.org/2000/svg">
<g clip-path="url(#clip0)">
<path d="M8.92275 9.41313C10.4077 10.6236 10.9703 10.5381 13.7737 10.3506L40.2037 8.76513C40.7662 8.76513 40.2982 8.20263 40.1092 8.10813L35.7187 4.93563C34.8832 4.27863 33.7582 3.53763 31.6087 3.71613L6.02325 5.59113C5.08575 5.67663 4.89825 6.14613 5.27325 6.52113L8.92275 9.41313ZM10.5082 15.5781V43.3821C10.5082 44.8746 11.2507 45.4371 12.9307 45.3426L41.9782 43.6626C43.6582 43.5681 43.8532 42.5451 43.8532 41.3271V13.7106C43.8532 12.4911 43.3837 11.8431 42.3532 11.9376L12.0022 13.7106C10.8772 13.8051 10.5097 14.3586 10.5097 15.5706L10.5082 15.5781ZM39.1807 17.0616C39.3682 17.9061 39.1807 18.7416 38.3362 18.8436L36.9382 19.1256V39.6486C35.7187 40.3056 34.6027 40.6806 33.6727 40.6806C32.1727 40.6806 31.7977 40.2111 30.6802 38.8131L21.5242 24.4386V38.3451L24.4222 39.0021C24.4222 39.0021 24.4222 40.6821 22.0867 40.6821L15.6412 41.0571C15.4537 40.6821 15.6412 39.7446 16.2982 39.5646L17.9782 39.0951V20.7126L15.6428 20.5251C15.4553 19.6806 15.9247 18.4701 17.2282 18.3771L24.1417 17.9076L33.6727 32.4696V19.5861L31.2427 19.3041C31.0552 18.2811 31.7977 17.5311 32.7352 17.4441L39.1807 17.0616ZM3.87525 3.06963L30.4927 1.10913C33.7582 0.827129 34.6027 1.01463 36.6562 2.50713L45.1567 8.48313C46.5547 9.50613 47.0242 9.78813 47.0242 10.9056V43.6641C47.0242 45.7191 46.2742 46.9296 43.6642 47.1171L12.7417 48.9846C10.7887 49.0791 9.85125 48.7971 8.81925 47.4921L2.56125 39.3666C1.44375 37.8741 0.97575 36.7566 0.97575 35.4531V6.33663C0.97575 4.65663 1.72575 3.25863 3.87375 3.07113L3.87525 3.06963Z" fill="black"/>
</g>
<defs>
<clipPath id="clip0">
<rect width="46.0485" height="48.0026" fill="white" transform="translate(0.97575 0.998688)"/>
</clipPath>
</defs>
</svg>
