<svg width="48" height="48" viewBox="0 0 48 48" fill="none" xmlns="http://www.w3.org/2000/svg">
<g clip-path="url(#clip0)">
<path d="M43.708 2.832C43.0415 4.43062 42.1789 5.94019 41.14 7.326C38.916 5.02241 36.2524 3.1885 33.3069 1.93285C30.3614 0.67721 27.1939 0.0253627 23.9919 0.0159124C20.7899 0.00646198 17.6186 0.6396 14.6657 1.87784C11.7129 3.11607 9.03848 4.93423 6.80092 7.22465C4.56337 9.51507 2.80815 12.2312 1.63919 15.2122C0.47024 18.1931 -0.0886818 21.3784 -0.00447393 24.5792C0.079734 27.7801 0.805359 30.9315 2.12943 33.8469C3.45351 36.7623 5.34911 39.3824 7.704 41.552L8.592 42.342C11.9654 45.1876 16.0607 47.0439 20.4242 47.7053C24.7877 48.3667 29.2491 47.8074 33.3142 46.0893C37.3794 44.3713 40.8897 41.5615 43.4564 37.9713C46.023 34.381 47.5457 30.1504 47.856 25.748C48.548 19.722 46.72 12.018 43.708 2.832V2.832ZM11.16 41.75C10.9061 42.0617 10.5656 42.2912 10.1814 42.4094C9.79722 42.5277 9.38659 42.5295 9.00138 42.4146C8.61617 42.2997 8.27366 42.0732 8.01709 41.7637C7.76052 41.4542 7.6014 41.0757 7.55982 40.6758C7.51825 40.276 7.59609 39.8728 7.7835 39.5172C7.97092 39.1616 8.25951 38.8694 8.61283 38.6777C8.96616 38.486 9.36837 38.4033 9.76868 38.44C10.169 38.4767 10.5494 38.6312 10.862 38.884C11.2715 39.2308 11.5312 39.7224 11.5867 40.2561C11.6422 40.7898 11.4894 41.3244 11.16 41.748V41.75ZM43.558 34.588C37.68 42.44 25.038 39.774 16.986 40.168C16.986 40.168 15.554 40.268 14.122 40.464C14.122 40.464 14.666 40.218 15.358 39.97C21.038 37.996 23.704 37.6 27.16 35.822C33.63 32.514 40.1 25.254 41.384 17.746C38.914 24.958 31.408 31.18 24.592 33.698C19.9 35.428 11.456 37.106 11.456 37.106L11.11 36.908C5.38 34.094 5.184 21.648 15.654 17.648C20.246 15.868 24.594 16.858 29.58 15.672C34.866 14.438 40.99 10.486 43.46 5.3C46.224 13.648 49.582 26.586 43.558 34.588Z" fill="black"/>
</g>
<defs>
<clipPath id="clip0">
<rect width="48" height="48" fill="white"/>
</clipPath>
</defs>
</svg>
