<svg width="49" height="50" viewBox="0 0 49 50" fill="none" xmlns="http://www.w3.org/2000/svg">
<g filter="url(#filter0_d)">
<path d="M9.38339 42C9.38339 42 6.38339 42 6.38339 39C6.38339 36 9.38339 27 24.3834 27C39.3834 27 42.3834 36 42.3834 39C42.3834 42 39.3834 42 39.3834 42H9.38339ZM24.3834 24C26.7703 24 29.0595 23.0518 30.7474 21.364C32.4352 19.6761 33.3834 17.3869 33.3834 15C33.3834 12.6131 32.4352 10.3239 30.7474 8.63604C29.0595 6.94821 26.7703 6 24.3834 6C21.9964 6 19.7073 6.94821 18.0194 8.63604C16.3316 10.3239 15.3834 12.6131 15.3834 15C15.3834 17.3869 16.3316 19.6761 18.0194 21.364C19.7073 23.0518 21.9964 24 24.3834 24Z" fill="#212426"/>
</g>
<defs>
<filter id="filter0_d" x="-3.61661" y="0" width="56" height="56" filterUnits="userSpaceOnUse" color-interpolation-filters="sRGB">
<feFlood flood-opacity="0" result="BackgroundImageFix"/>
<feColorMatrix in="SourceAlpha" type="matrix" values="0 0 0 0 0 0 0 0 0 0 0 0 0 0 0 0 0 0 127 0" result="hardAlpha"/>
<feOffset dy="4"/>
<feGaussianBlur stdDeviation="2"/>
<feColorMatrix type="matrix" values="0 0 0 0 0 0 0 0 0 0 0 0 0 0 0 0 0 0 0.25 0"/>
<feBlend mode="normal" in2="BackgroundImageFix" result="effect1_dropShadow"/>
<feBlend mode="normal" in="SourceGraphic" in2="effect1_dropShadow" result="shape"/>
</filter>
</defs>
</svg>
