<svg width="57" height="56" viewBox="0 0 57 56" fill="none" xmlns="http://www.w3.org/2000/svg">
<g clip-path="url(#clip0)" filter="url(#filter0_d)">
<path d="M51.3615 37.0969L40.3834 26.1188C38.2178 23.9531 34.9834 23.5313 32.3771 24.8156L22.3834 14.8219V9L10.3834 0L4.38338 6L13.3834 18H19.2053L29.199 27.9938C27.924 30.6 28.3365 33.8344 30.5021 36L41.4803 46.9781C42.849 48.3469 45.0615 48.3469 46.4209 46.9781L51.3615 42.0375C52.7209 40.6688 52.7209 38.4563 51.3615 37.0969ZM35.4803 21.0938C38.1334 21.0938 40.6271 22.125 42.5021 24L44.3209 25.8187C45.8021 25.1719 47.2084 24.2719 48.4271 23.0531C51.9053 19.575 53.0865 14.6812 51.9803 10.2375C51.774 9.39375 50.7146 9.10312 50.0959 9.72187L43.1209 16.6969L36.7553 15.6375L35.6959 9.27188L42.6709 2.29688C43.2896 1.67813 42.9896 0.61875 42.1365 0.403125C37.6928 -0.69375 32.799 0.4875 29.3303 3.95625C26.6584 6.62813 25.4021 10.1531 25.4678 13.6688L33.1646 21.3656C33.924 21.1875 34.7115 21.0938 35.4803 21.0938ZM25.7396 28.7812L20.424 23.4656L6.13651 37.7625C3.79276 40.1062 3.79276 43.9031 6.13651 46.2469C8.48026 48.5906 12.2771 48.5906 14.6209 46.2469L26.2084 34.6594C25.4959 32.7938 25.2803 30.7594 25.7396 28.7812ZM10.3834 44.25C9.14588 44.25 8.13338 43.2375 8.13338 42C8.13338 40.7531 9.13651 39.75 10.3834 39.75C11.6303 39.75 12.6334 40.7531 12.6334 42C12.6334 43.2375 11.6303 44.25 10.3834 44.25Z" fill="#212426"/>
</g>
<defs>
<filter id="filter0_d" x="0.383392" y="0" width="56" height="56" filterUnits="userSpaceOnUse" color-interpolation-filters="sRGB">
<feFlood flood-opacity="0" result="BackgroundImageFix"/>
<feColorMatrix in="SourceAlpha" type="matrix" values="0 0 0 0 0 0 0 0 0 0 0 0 0 0 0 0 0 0 127 0" result="hardAlpha"/>
<feOffset dy="4"/>
<feGaussianBlur stdDeviation="2"/>
<feColorMatrix type="matrix" values="0 0 0 0 0 0 0 0 0 0 0 0 0 0 0 0 0 0 0.25 0"/>
<feBlend mode="normal" in2="BackgroundImageFix" result="effect1_dropShadow"/>
<feBlend mode="normal" in="SourceGraphic" in2="effect1_dropShadow" result="shape"/>
</filter>
<clipPath id="clip0">
<rect width="48" height="48" fill="white" transform="translate(4.38339)"/>
</clipPath>
</defs>
</svg>
